<?xml version="1.0" encoding="UTF-8" standalone="no"?>
<!DOCTYPE svg PUBLIC "-//W3C//DTD SVG 1.1//EN"
 "http://www.w3.org/Graphics/SVG/1.1/DTD/svg11.dtd">
<!-- Generated by graphviz version 2.43.0 (0)
 -->
<!-- Title: G Pages: 1 -->
<svg width="569pt" height="67pt"
 viewBox="0.00 0.00 569.00 67.00" xmlns="http://www.w3.org/2000/svg" xmlns:xlink="http://www.w3.org/1999/xlink">
<g id="graph0" class="graph" transform="scale(1 1) rotate(0) translate(4 63)">
<title>G</title>
<polygon fill="#f5f5f5" stroke="transparent" points="-4,4 -4,-63 565,-63 565,4 -4,4"/>
<text text-anchor="middle" x="280.5" y="-43.8" font-family="Times,serif" font-size="14.00">Clientes</text>
<!-- n1 -->
<g id="node1" class="node">
<title>n1</title>
<polygon fill="#004488" stroke="transparent" points="84,-36 0,-36 0,0 84,0 84,-36"/>
<text text-anchor="middle" x="42" y="-26.9" font-family="Times,serif" font-size="4.50" fill="#f5f5f5">dpi = 1122334455667</text>
<text text-anchor="middle" x="42" y="-21.9" font-family="Times,serif" font-size="4.50" fill="#f5f5f5">Nombres = Carlos Eduardo</text>
<text text-anchor="middle" x="42" y="-16.9" font-family="Times,serif" font-size="4.50" fill="#f5f5f5">Apellidos = Morales Castillo</text>
<text text-anchor="middle" x="42" y="-11.9" font-family="Times,serif" font-size="4.50" fill="#f5f5f5">Genero = Masculino</text>
<text text-anchor="middle" x="42" y="-6.9" font-family="Times,serif" font-size="4.50" fill="#f5f5f5">Telefono = 55558910</text>
</g>
<!-- n2 -->
<g id="node2" class="node">
<title>n2</title>
<polygon fill="#004488" stroke="transparent" points="194,-36 120,-36 120,0 194,0 194,-36"/>
<text text-anchor="middle" x="157" y="-26.9" font-family="Times,serif" font-size="4.50" fill="#f5f5f5">dpi = 1234567890101</text>
<text text-anchor="middle" x="157" y="-21.9" font-family="Times,serif" font-size="4.50" fill="#f5f5f5">Nombres = Juan Carlos</text>
<text text-anchor="middle" x="157" y="-16.9" font-family="Times,serif" font-size="4.50" fill="#f5f5f5">Apellidos = Pérez López</text>
<text text-anchor="middle" x="157" y="-11.9" font-family="Times,serif" font-size="4.50" fill="#f5f5f5">Genero = Masculino</text>
<text text-anchor="middle" x="157" y="-6.9" font-family="Times,serif" font-size="4.50" fill="#f5f5f5">Telefono = 55551234</text>
</g>
<!-- n1&#45;&gt;n2 -->
<g id="edge1" class="edge">
<title>n1&#45;&gt;n2</title>
<path fill="none" stroke="#ff5722" d="M84.23,-5.45C92.74,-4.39 101.25,-4.22 109.77,-4.93"/>
<polygon fill="#ff5722" stroke="#ff5722" points="109.4,-8.41 119.76,-6.18 110.27,-1.47 109.4,-8.41"/>
</g>
<!-- n5 -->
<g id="node5" class="node">
<title>n5</title>
<polygon fill="#004488" stroke="transparent" points="561,-36 473,-36 473,0 561,0 561,-36"/>
<text text-anchor="middle" x="517" y="-26.9" font-family="Times,serif" font-size="4.50" fill="#f5f5f5">dpi = 9876543210202</text>
<text text-anchor="middle" x="517" y="-21.9" font-family="Times,serif" font-size="4.50" fill="#f5f5f5">Nombres = María Fernanda</text>
<text text-anchor="middle" x="517" y="-16.9" font-family="Times,serif" font-size="4.50" fill="#f5f5f5">Apellidos = Rodríguez Gómez</text>
<text text-anchor="middle" x="517" y="-11.9" font-family="Times,serif" font-size="4.50" fill="#f5f5f5">Genero = Femenino</text>
<text text-anchor="middle" x="517" y="-6.9" font-family="Times,serif" font-size="4.50" fill="#f5f5f5">Telefono = 55555678</text>
</g>
<!-- n1&#45;&gt;n5 -->
<g id="edge10" class="edge">
<title>n1:s&#45;&gt;n5:s</title>
<path fill="none" stroke="#ff5722" d="M42,0C42,0 437.17,0 506.64,0"/>
<polygon fill="#ff5722" stroke="#ff5722" points="507,-3.5 517,0 507,3.5 507,-3.5"/>
</g>
<!-- n2&#45;&gt;n1 -->
<g id="edge3" class="edge">
<title>n2&#45;&gt;n1</title>
<path fill="none" stroke="#ff5722" d="M119.76,-29.82C111.25,-31.23 102.73,-31.75 94.22,-31.39"/>
<polygon fill="#ff5722" stroke="#ff5722" points="94.48,-27.9 84.23,-30.55 93.9,-34.87 94.48,-27.9"/>
</g>
<!-- n3 -->
<g id="node3" class="node">
<title>n3</title>
<polygon fill="#004488" stroke="transparent" points="317.5,-36 230.5,-36 230.5,0 317.5,0 317.5,-36"/>
<text text-anchor="middle" x="274" y="-26.9" font-family="Times,serif" font-size="4.50" fill="#f5f5f5">dpi = 2233445566778</text>
<text text-anchor="middle" x="274" y="-21.9" font-family="Times,serif" font-size="4.50" fill="#f5f5f5">Nombres = Ana Patricia</text>
<text text-anchor="middle" x="274" y="-16.9" font-family="Times,serif" font-size="4.50" fill="#f5f5f5">Apellidos = López Hernández</text>
<text text-anchor="middle" x="274" y="-11.9" font-family="Times,serif" font-size="4.50" fill="#f5f5f5">Genero = Femenino</text>
<text text-anchor="middle" x="274" y="-6.9" font-family="Times,serif" font-size="4.50" fill="#f5f5f5">Telefono = 55551122</text>
</g>
<!-- n2&#45;&gt;n3 -->
<g id="edge2" class="edge">
<title>n2&#45;&gt;n3</title>
<path fill="none" stroke="#ff5722" d="M194.02,-6.32C202.7,-4.85 211.39,-4.27 220.07,-4.58"/>
<polygon fill="#ff5722" stroke="#ff5722" points="220.02,-8.09 230.26,-5.36 220.56,-1.11 220.02,-8.09"/>
</g>
<!-- n3&#45;&gt;n2 -->
<g id="edge5" class="edge">
<title>n3&#45;&gt;n2</title>
<path fill="none" stroke="#ff5722" d="M230.26,-30.64C221.58,-31.65 212.9,-31.77 204.21,-31"/>
<polygon fill="#ff5722" stroke="#ff5722" points="204.39,-27.49 194.02,-29.68 203.49,-34.43 204.39,-27.49"/>
</g>
<!-- n4 -->
<g id="node4" class="node">
<title>n4</title>
<polygon fill="#004488" stroke="transparent" points="436.5,-36 353.5,-36 353.5,0 436.5,0 436.5,-36"/>
<text text-anchor="middle" x="395" y="-26.9" font-family="Times,serif" font-size="4.50" fill="#f5f5f5">dpi = 3344556677889</text>
<text text-anchor="middle" x="395" y="-21.9" font-family="Times,serif" font-size="4.50" fill="#f5f5f5">Nombres = Luis Alberto</text>
<text text-anchor="middle" x="395" y="-16.9" font-family="Times,serif" font-size="4.50" fill="#f5f5f5">Apellidos = García Ramírez</text>
<text text-anchor="middle" x="395" y="-11.9" font-family="Times,serif" font-size="4.50" fill="#f5f5f5">Genero = Masculino</text>
<text text-anchor="middle" x="395" y="-6.9" font-family="Times,serif" font-size="4.50" fill="#f5f5f5">Telefono = 55553344</text>
</g>
<!-- n3&#45;&gt;n4 -->
<g id="edge4" class="edge">
<title>n3&#45;&gt;n4</title>
<path fill="none" stroke="#ff5722" d="M317.96,-5.51C326.47,-4.47 334.97,-4.23 343.48,-4.8"/>
<polygon fill="#ff5722" stroke="#ff5722" points="343.16,-8.28 353.47,-5.83 343.88,-1.32 343.16,-8.28"/>
</g>
<!-- n4&#45;&gt;n3 -->
<g id="edge7" class="edge">
<title>n4&#45;&gt;n3</title>
<path fill="none" stroke="#ff5722" d="M353.47,-30.17C344.96,-31.36 336.45,-31.75 327.94,-31.34"/>
<polygon fill="#ff5722" stroke="#ff5722" points="328.22,-27.85 317.96,-30.49 327.62,-34.83 328.22,-27.85"/>
</g>
<!-- n4&#45;&gt;n5 -->
<g id="edge6" class="edge">
<title>n4&#45;&gt;n5</title>
<path fill="none" stroke="#ff5722" d="M436.94,-5.82C445.55,-4.63 454.17,-4.24 462.79,-4.67"/>
<polygon fill="#ff5722" stroke="#ff5722" points="462.64,-8.17 472.9,-5.54 463.24,-1.19 462.64,-8.17"/>
</g>
<!-- n5&#45;&gt;n1 -->
<g id="edge9" class="edge">
<title>n5:n&#45;&gt;n1:n</title>
<path fill="none" stroke="#ff5722" d="M517,-36C517,-36 121.83,-36 52.36,-36"/>
<polygon fill="#ff5722" stroke="#ff5722" points="52,-32.5 42,-36 52,-39.5 52,-32.5"/>
</g>
<!-- n5&#45;&gt;n4 -->
<g id="edge8" class="edge">
<title>n5&#45;&gt;n4</title>
<path fill="none" stroke="#ff5722" d="M472.9,-30.46C464.29,-31.52 455.67,-31.77 447.05,-31.21"/>
<polygon fill="#ff5722" stroke="#ff5722" points="447.24,-27.71 436.94,-30.18 446.53,-34.67 447.24,-27.71"/>
</g>
</g>
</svg>
