<?xml version="1.0" encoding="UTF-8" standalone="no"?>
<!DOCTYPE svg PUBLIC "-//W3C//DTD SVG 1.1//EN"
 "http://www.w3.org/Graphics/SVG/1.1/DTD/svg11.dtd">
<!-- Generated by graphviz version 2.43.0 (0)
 -->
<!-- Title: G Pages: 1 -->
<svg width="221pt" height="67pt"
 viewBox="0.00 0.00 221.00 67.00" xmlns="http://www.w3.org/2000/svg" xmlns:xlink="http://www.w3.org/1999/xlink">
<g id="graph0" class="graph" transform="scale(1 1) rotate(0) translate(4 63)">
<title>G</title>
<polygon fill="#f5f5f5" stroke="transparent" points="-4,4 -4,-63 217,-63 217,4 -4,4"/>
<text text-anchor="middle" x="106.5" y="-43.8" font-family="Times,serif" font-size="14.00">Ruta en el viaje 1</text>
<!-- n1 -->
<g id="node1" class="node">
<title>n1</title>
<polygon fill="#004488" stroke="transparent" points="76,-36 0,-36 0,0 76,0 76,-36"/>
<text text-anchor="middle" x="38" y="-20" font-family="Times,serif" font-size="7.50" fill="#f5f5f5">Lugar: Granada</text>
<text text-anchor="middle" x="38" y="-12" font-family="Times,serif" font-size="7.50" fill="#f5f5f5">Tiempo: 0</text>
</g>
<!-- n2 -->
<g id="node2" class="node">
<title>n2</title>
<polygon fill="#004488" stroke="transparent" points="213,-36 112,-36 112,0 213,0 213,-36"/>
<text text-anchor="middle" x="162.5" y="-20" font-family="Times,serif" font-size="7.50" fill="#f5f5f5">Lugar: Murcia</text>
<text text-anchor="middle" x="162.5" y="-12" font-family="Times,serif" font-size="7.50" fill="#f5f5f5">Tiempo: 0 + 278 = 278</text>
</g>
<!-- n1&#45;&gt;n2 -->
<g id="edge1" class="edge">
<title>n1&#45;&gt;n2</title>
<path fill="none" stroke="#ff5722" d="M76.09,-18C84.18,-18 92.95,-18 101.68,-18"/>
<polygon fill="#ff5722" stroke="#ff5722" points="101.87,-21.5 111.87,-18 101.87,-14.5 101.87,-21.5"/>
</g>
</g>
</svg>
