<?xml version="1.0" encoding="UTF-8" standalone="no"?>
<!DOCTYPE svg PUBLIC "-//W3C//DTD SVG 1.1//EN"
 "http://www.w3.org/Graphics/SVG/1.1/DTD/svg11.dtd">
<!-- Generated by graphviz version 2.43.0 (0)
 -->
<!-- Title: G Pages: 1 -->
<svg width="577pt" height="319pt"
 viewBox="0.00 0.00 576.95 318.60" xmlns="http://www.w3.org/2000/svg" xmlns:xlink="http://www.w3.org/1999/xlink">
<g id="graph0" class="graph" transform="scale(1 1) rotate(0) translate(4 314.6)">
<title>G</title>
<polygon fill="white" stroke="transparent" points="-4,4 -4,-314.6 572.95,-314.6 572.95,4 -4,4"/>
<!-- n0 -->
<g id="node1" class="node">
<title>n0</title>
<ellipse fill="none" stroke="black" cx="267.19" cy="-151.84" rx="83.39" ry="18"/>
<text text-anchor="middle" x="267.19" y="-148.14" font-family="Times,serif" font-size="14.00">Guatemala City</text>
</g>
<!-- n1 -->
<g id="node2" class="node">
<title>n1</title>
<ellipse fill="none" stroke="black" cx="468.86" cy="-116.79" rx="100.18" ry="18"/>
<text text-anchor="middle" x="468.86" y="-113.09" font-family="Times,serif" font-size="14.00">Antigua Guatemala</text>
</g>
<!-- n0&#45;&#45;n1 -->
<g id="edge1" class="edge">
<title>n0&#45;&#45;n1</title>
<path fill="none" stroke="black" d="M332.11,-140.56C352.72,-136.97 375.63,-132.99 396.72,-129.33"/>
<text text-anchor="middle" x="382.74" y="-138.77" font-family="Times,serif" font-size="14.00">5400</text>
</g>
<!-- n2 -->
<g id="node3" class="node">
<title>n2</title>
<ellipse fill="none" stroke="black" cx="305.92" cy="-18" rx="83.69" ry="18"/>
<text text-anchor="middle" x="305.92" y="-14.3" font-family="Times,serif" font-size="14.00">Quetzaltenango</text>
</g>
<!-- n0&#45;&#45;n2 -->
<g id="edge3" class="edge">
<title>n0&#45;&#45;n2</title>
<path fill="none" stroke="black" d="M272.41,-133.79C279.8,-108.25 293.24,-61.81 300.65,-36.19"/>
<text text-anchor="middle" x="268.02" y="-88.82" font-family="Times,serif" font-size="14.00">4000</text>
</g>
<!-- n4 -->
<g id="node5" class="node">
<title>n4</title>
<ellipse fill="none" stroke="black" cx="348.55" cy="-264.68" rx="53.89" ry="18"/>
<text text-anchor="middle" x="348.55" y="-260.98" font-family="Times,serif" font-size="14.00">Escuintla</text>
</g>
<!-- n0&#45;&#45;n4 -->
<g id="edge4" class="edge">
<title>n0&#45;&#45;n4</title>
<path fill="none" stroke="black" d="M280.08,-169.72C295.32,-190.85 320.51,-225.79 335.72,-246.88"/>
<text text-anchor="middle" x="289.41" y="-212.12" font-family="Times,serif" font-size="14.00">6100</text>
</g>
<!-- n6 -->
<g id="node7" class="node">
<title>n6</title>
<ellipse fill="none" stroke="black" cx="38.35" cy="-190.84" rx="38.19" ry="18"/>
<text text-anchor="middle" x="38.35" y="-187.14" font-family="Times,serif" font-size="14.00">Izabal</text>
</g>
<!-- n0&#45;&#45;n6 -->
<g id="edge2" class="edge">
<title>n0&#45;&#45;n6</title>
<path fill="none" stroke="black" d="M201.61,-163.02C160.27,-170.06 108.46,-178.89 74.43,-184.69"/>
<text text-anchor="middle" x="116.78" y="-178.12" font-family="Times,serif" font-size="14.00">5000</text>
</g>
<!-- n1&#45;&#45;n2 -->
<g id="edge6" class="edge">
<title>n1&#45;&#45;n2</title>
<path fill="none" stroke="black" d="M440.1,-99.35C410.23,-81.24 363.78,-53.08 334.11,-35.09"/>
<text text-anchor="middle" x="368.53" y="-70.98" font-family="Times,serif" font-size="14.00">4900</text>
</g>
<!-- n1&#45;&#45;n4 -->
<g id="edge5" class="edge">
<title>n1&#45;&#45;n4</title>
<path fill="none" stroke="black" d="M454.34,-134.63C431.1,-163.21 385.78,-218.91 362.74,-247.24"/>
<text text-anchor="middle" x="389.96" y="-194.83" font-family="Times,serif" font-size="14.00">4500</text>
</g>
<!-- n3 -->
<g id="node4" class="node">
<title>n3</title>
<ellipse fill="none" stroke="black" cx="182.71" cy="-292.6" rx="84.49" ry="18"/>
<text text-anchor="middle" x="182.71" y="-288.9" font-family="Times,serif" font-size="14.00">Huehuetenango</text>
</g>
<!-- n2&#45;&#45;n3 -->
<g id="edge7" class="edge">
<title>n2&#45;&#45;n3</title>
<path fill="none" stroke="black" d="M281.13,-35.37C251.12,-58.1 202.15,-101.03 182.4,-151.65 166.22,-193.14 173.2,-246.88 178.59,-274.48"/>
<text text-anchor="middle" x="163.9" y="-155.47" font-family="Times,serif" font-size="14.00">8100</text>
</g>
<!-- n5 -->
<g id="node6" class="node">
<title>n5</title>
<ellipse fill="none" stroke="black" cx="140.61" cy="-46.99" rx="73.39" ry="18"/>
<text text-anchor="middle" x="140.61" y="-43.29" font-family="Times,serif" font-size="14.00">Mazatenango</text>
</g>
<!-- n2&#45;&#45;n5 -->
<g id="edge8" class="edge">
<title>n2&#45;&#45;n5</title>
<path fill="none" stroke="black" d="M240.58,-29.46C227.32,-31.78 213.43,-34.22 200.37,-36.51"/>
<text text-anchor="middle" x="238.9" y="-36.8" font-family="Times,serif" font-size="14.00">5300</text>
</g>
<!-- n3&#45;&#45;n4 -->
<g id="edge10" class="edge">
<title>n3&#45;&#45;n4</title>
<path fill="none" stroke="black" d="M249.2,-281.41C266.24,-278.54 284.23,-275.51 300.16,-272.83"/>
<text text-anchor="middle" x="275.09" y="-265.85" font-family="Times,serif" font-size="14.00">6800</text>
</g>
<!-- n3&#45;&#45;n6 -->
<g id="edge9" class="edge">
<title>n3&#45;&#45;n6</title>
<path fill="none" stroke="black" d="M158.22,-275.34C130.55,-255.83 85.95,-224.39 59.66,-205.86"/>
<text text-anchor="middle" x="89.92" y="-244.03" font-family="Times,serif" font-size="14.00">7200</text>
</g>
<!-- n4&#45;&#45;n5 -->
<g id="edge11" class="edge">
<title>n4&#45;&#45;n5</title>
<path fill="none" stroke="black" d="M316.49,-250.16C279.54,-231.95 219.21,-197.49 182.4,-151.65 161.45,-125.57 149.84,-87.63 144.45,-65.32"/>
<text text-anchor="middle" x="191.47" y="-184.32" font-family="Times,serif" font-size="14.00">6300</text>
</g>
<!-- n5&#45;&#45;n6 -->
<g id="edge12" class="edge">
<title>n5&#45;&#45;n6</title>
<path fill="none" stroke="black" d="M127.87,-64.92C108.06,-92.78 70.13,-146.14 50.61,-173.58"/>
<text text-anchor="middle" x="70.63" y="-123.21" font-family="Times,serif" font-size="14.00">4700</text>
</g>
</g>
</svg>
