<?xml version="1.0" encoding="UTF-8" standalone="no"?>
<!DOCTYPE svg PUBLIC "-//W3C//DTD SVG 1.1//EN"
 "http://www.w3.org/Graphics/SVG/1.1/DTD/svg11.dtd">
<!-- Generated by graphviz version 2.43.0 (0)
 -->
<!-- Title: G Pages: 1 -->
<svg width="640pt" height="605pt"
 viewBox="0.00 0.00 639.56 605.31" xmlns="http://www.w3.org/2000/svg" xmlns:xlink="http://www.w3.org/1999/xlink">
<g id="graph0" class="graph" transform="scale(1 1) rotate(0) translate(4 601.31)">
<title>G</title>
<polygon fill="#f5f5f5" stroke="transparent" points="-4,4 -4,-601.31 635.56,-601.31 635.56,4 -4,4"/>
<text text-anchor="middle" x="315.78" y="-573.31" font-family="Times,serif" font-size="25.00">Rutas</text>
<!-- n0 -->
<g id="node1" class="node">
<title>n0</title>
<ellipse fill="#004488" stroke="transparent" cx="36.4" cy="-474.87" rx="36.29" ry="18"/>
<text text-anchor="middle" x="36.4" y="-471.17" font-family="Times,serif" font-size="14.00" fill="#f5f5f5">Cadiz</text>
</g>
<!-- n1 -->
<g id="node2" class="node">
<title>n1</title>
<ellipse fill="#004488" stroke="transparent" cx="133.36" cy="-421.44" rx="42.49" ry="18"/>
<text text-anchor="middle" x="133.36" y="-417.74" font-family="Times,serif" font-size="14.00" fill="#f5f5f5">Sevilla</text>
</g>
<!-- n0&#45;&#45;n1 -->
<g id="edge1" class="edge">
<title>n0&#45;&#45;n1</title>
<path fill="none" stroke="#ff5722" d="M60.86,-461.39C75,-453.6 92.78,-443.8 107.2,-435.85"/>
<text text-anchor="middle" x="69.93" y="-437.48" font-family="Times,serif" font-size="14.00">125</text>
</g>
<!-- n2 -->
<g id="node3" class="node">
<title>n2</title>
<ellipse fill="#004488" stroke="transparent" cx="148.29" cy="-318.02" rx="50.09" ry="18"/>
<text text-anchor="middle" x="148.29" y="-314.32" font-family="Times,serif" font-size="14.00" fill="#f5f5f5">Granada</text>
</g>
<!-- n1&#45;&#45;n2 -->
<g id="edge2" class="edge">
<title>n1&#45;&#45;n2</title>
<path fill="none" stroke="#ff5722" d="M135.96,-403.42C138.68,-384.56 142.94,-355.1 145.67,-336.18"/>
<text text-anchor="middle" x="126.81" y="-373.62" font-family="Times,serif" font-size="14.00">256</text>
</g>
<!-- n3 -->
<g id="node4" class="node">
<title>n3</title>
<ellipse fill="#004488" stroke="transparent" cx="240.74" cy="-388.14" rx="30.59" ry="18"/>
<text text-anchor="middle" x="240.74" y="-384.44" font-family="Times,serif" font-size="14.00" fill="#f5f5f5">Jaen</text>
</g>
<!-- n1&#45;&#45;n3 -->
<g id="edge3" class="edge">
<title>n1&#45;&#45;n3</title>
<path fill="none" stroke="#ff5722" d="M167.63,-410.81C182.49,-406.2 199.63,-400.89 213.58,-396.56"/>
<text text-anchor="middle" x="176.95" y="-392.38" font-family="Times,serif" font-size="14.00">242</text>
</g>
<!-- n2&#45;&#45;n3 -->
<g id="edge4" class="edge">
<title>n2&#45;&#45;n3</title>
<path fill="none" stroke="#ff5722" d="M170.2,-334.64C185.9,-346.55 206.83,-362.42 221.81,-373.78"/>
<text text-anchor="middle" x="186.78" y="-358.21" font-family="Times,serif" font-size="14.00">99</text>
</g>
<!-- n4 -->
<g id="node5" class="node">
<title>n4</title>
<ellipse fill="#004488" stroke="transparent" cx="191.46" cy="-216.21" rx="43.59" ry="18"/>
<text text-anchor="middle" x="191.46" y="-212.51" font-family="Times,serif" font-size="14.00" fill="#f5f5f5">Murcia</text>
</g>
<!-- n2&#45;&#45;n4 -->
<g id="edge5" class="edge">
<title>n2&#45;&#45;n4</title>
<path fill="none" stroke="#ff5722" d="M156.01,-299.82C163.87,-281.29 175.97,-252.73 183.81,-234.25"/>
<text text-anchor="middle" x="155.92" y="-270.82" font-family="Times,serif" font-size="14.00">278</text>
</g>
<!-- n5 -->
<g id="node6" class="node">
<title>n5</title>
<ellipse fill="#004488" stroke="transparent" cx="363" cy="-349.32" rx="44.39" ry="18"/>
<text text-anchor="middle" x="363" y="-345.62" font-family="Times,serif" font-size="14.00" fill="#f5f5f5">Madrid</text>
</g>
<!-- n3&#45;&#45;n5 -->
<g id="edge6" class="edge">
<title>n3&#45;&#45;n5</title>
<path fill="none" stroke="#ff5722" d="M267.88,-379.52C285.6,-373.89 308.93,-366.49 328.04,-360.42"/>
<text text-anchor="middle" x="283.44" y="-358.93" font-family="Times,serif" font-size="14.00">335</text>
</g>
<!-- n6 -->
<g id="node7" class="node">
<title>n6</title>
<ellipse fill="#004488" stroke="transparent" cx="273.01" cy="-145.82" rx="49.29" ry="18"/>
<text text-anchor="middle" x="273.01" y="-142.12" font-family="Times,serif" font-size="14.00" fill="#f5f5f5">Valencia</text>
</g>
<!-- n4&#45;&#45;n6 -->
<g id="edge7" class="edge">
<title>n4&#45;&#45;n6</title>
<path fill="none" stroke="#ff5722" d="M210.37,-199.88C223.36,-188.67 240.55,-173.84 253.63,-162.54"/>
<text text-anchor="middle" x="217.97" y="-185.04" font-family="Times,serif" font-size="14.00">241</text>
</g>
<!-- n7 -->
<g id="node8" class="node">
<title>n7</title>
<ellipse fill="#004488" stroke="transparent" cx="296.35" cy="-253.71" rx="50.89" ry="18"/>
<text text-anchor="middle" x="296.35" y="-250.01" font-family="Times,serif" font-size="14.00" fill="#f5f5f5">Albacete</text>
</g>
<!-- n4&#45;&#45;n7 -->
<g id="edge8" class="edge">
<title>n4&#45;&#45;n7</title>
<path fill="none" stroke="#ff5722" d="M224.65,-228.07C236.05,-232.15 248.87,-236.73 260.47,-240.88"/>
<text text-anchor="middle" x="228.48" y="-238.25" font-family="Times,serif" font-size="14.00">150</text>
</g>
<!-- n5&#45;&#45;n7 -->
<g id="edge9" class="edge">
<title>n5&#45;&#45;n7</title>
<path fill="none" stroke="#ff5722" d="M350.78,-331.78C338.83,-314.64 320.73,-288.67 308.73,-271.46"/>
<text text-anchor="middle" x="315.77" y="-305.45" font-family="Times,serif" font-size="14.00">251</text>
</g>
<!-- n10 -->
<g id="node11" class="node">
<title>n10</title>
<ellipse fill="#004488" stroke="transparent" cx="423.08" cy="-240.47" rx="53.89" ry="18"/>
<text text-anchor="middle" x="423.08" y="-236.77" font-family="Times,serif" font-size="14.00" fill="#f5f5f5">Zaragoza</text>
</g>
<!-- n5&#45;&#45;n10 -->
<g id="edge10" class="edge">
<title>n5&#45;&#45;n10</title>
<path fill="none" stroke="#ff5722" d="M372.92,-331.34C384.05,-311.17 402,-278.65 413.14,-258.47"/>
<text text-anchor="middle" x="379.03" y="-298.71" font-family="Times,serif" font-size="14.00">325</text>
</g>
<!-- n11 -->
<g id="node12" class="node">
<title>n11</title>
<ellipse fill="#004488" stroke="transparent" cx="338.54" cy="-461.28" rx="47.39" ry="18"/>
<text text-anchor="middle" x="338.54" y="-457.58" font-family="Times,serif" font-size="14.00" fill="#f5f5f5">Badajoz</text>
</g>
<!-- n5&#45;&#45;n11 -->
<g id="edge11" class="edge">
<title>n5&#45;&#45;n11</title>
<path fill="none" stroke="#ff5722" d="M359.07,-367.31C354.51,-388.2 347.02,-422.46 342.46,-443.34"/>
<text text-anchor="middle" x="336.76" y="-409.13" font-family="Times,serif" font-size="14.00">403</text>
</g>
<!-- n12 -->
<g id="node13" class="node">
<title>n12</title>
<ellipse fill="#004488" stroke="transparent" cx="458.04" cy="-428.66" rx="55.79" ry="18"/>
<text text-anchor="middle" x="458.04" y="-424.96" font-family="Times,serif" font-size="14.00" fill="#f5f5f5">Valladolid</text>
</g>
<!-- n5&#45;&#45;n12 -->
<g id="edge12" class="edge">
<title>n5&#45;&#45;n12</title>
<path fill="none" stroke="#ff5722" d="M382.69,-365.76C398.78,-379.19 421.45,-398.12 437.71,-411.7"/>
<text text-anchor="middle" x="396.14" y="-392.47" font-family="Times,serif" font-size="14.00">193</text>
</g>
<!-- n15 -->
<g id="node16" class="node">
<title>n15</title>
<ellipse fill="#004488" stroke="transparent" cx="473.92" cy="-326.81" rx="40.09" ry="18"/>
<text text-anchor="middle" x="473.92" y="-323.11" font-family="Times,serif" font-size="14.00" fill="#f5f5f5">Bilbao</text>
</g>
<!-- n5&#45;&#45;n15 -->
<g id="edge13" class="edge">
<title>n5&#45;&#45;n15</title>
<path fill="none" stroke="#ff5722" d="M402.73,-341.25C413.92,-338.98 426.04,-336.52 437.06,-334.29"/>
<text text-anchor="middle" x="419.96" y="-326.56" font-family="Times,serif" font-size="14.00">395</text>
</g>
<!-- n6&#45;&#45;n7 -->
<g id="edge14" class="edge">
<title>n6&#45;&#45;n7</title>
<path fill="none" stroke="#ff5722" d="M276.97,-164.12C281.29,-184.08 288.16,-215.82 292.45,-235.68"/>
<text text-anchor="middle" x="270.72" y="-203.74" font-family="Times,serif" font-size="14.00">191</text>
</g>
<!-- n8 -->
<g id="node9" class="node">
<title>n8</title>
<ellipse fill="#004488" stroke="transparent" cx="387.61" cy="-125.65" rx="57.39" ry="18"/>
<text text-anchor="middle" x="387.61" y="-121.95" font-family="Times,serif" font-size="14.00" fill="#f5f5f5">Barcelona</text>
</g>
<!-- n6&#45;&#45;n8 -->
<g id="edge15" class="edge">
<title>n6&#45;&#45;n8</title>
<path fill="none" stroke="#ff5722" d="M317.65,-137.96C324.18,-136.81 330.95,-135.62 337.59,-134.45"/>
<text text-anchor="middle" x="341.58" y="-140.01" font-family="Times,serif" font-size="14.00">349</text>
</g>
<!-- n9 -->
<g id="node10" class="node">
<title>n9</title>
<ellipse fill="#004488" stroke="transparent" cx="422.5" cy="-18" rx="44.39" ry="18"/>
<text text-anchor="middle" x="422.5" y="-14.3" font-family="Times,serif" font-size="14.00" fill="#f5f5f5">Gerona</text>
</g>
<!-- n8&#45;&#45;n9 -->
<g id="edge16" class="edge">
<title>n8&#45;&#45;n9</title>
<path fill="none" stroke="#ff5722" d="M393.53,-107.39C399.99,-87.47 410.25,-55.8 416.67,-35.99"/>
<text text-anchor="middle" x="391.12" y="-75.45" font-family="Times,serif" font-size="14.00">100</text>
</g>
<!-- n8&#45;&#45;n10 -->
<g id="edge17" class="edge">
<title>n8&#45;&#45;n10</title>
<path fill="none" stroke="#ff5722" d="M393.16,-143.59C399.78,-165.03 410.8,-200.72 417.46,-222.27"/>
<text text-anchor="middle" x="391.29" y="-186.69" font-family="Times,serif" font-size="14.00">296</text>
</g>
<!-- n10&#45;&#45;n15 -->
<g id="edge18" class="edge">
<title>n10&#45;&#45;n15</title>
<path fill="none" stroke="#ff5722" d="M433.61,-258.36C442.4,-273.28 454.84,-294.41 463.58,-309.24"/>
<text text-anchor="middle" x="434.61" y="-287.63" font-family="Times,serif" font-size="14.00">324</text>
</g>
<!-- n13 -->
<g id="node14" class="node">
<title>n13</title>
<ellipse fill="#004488" stroke="transparent" cx="555.94" cy="-489.94" rx="31.4" ry="18"/>
<text text-anchor="middle" x="555.94" y="-486.24" font-family="Times,serif" font-size="14.00" fill="#f5f5f5">Vigo</text>
</g>
<!-- n12&#45;&#45;n13 -->
<g id="edge19" class="edge">
<title>n12&#45;&#45;n13</title>
<path fill="none" stroke="#ff5722" d="M483.76,-444.76C499.62,-454.69 519.72,-467.27 534.68,-476.63"/>
<text text-anchor="middle" x="495.56" y="-464.71" font-family="Times,serif" font-size="14.00">356</text>
</g>
<!-- n14 -->
<g id="node15" class="node">
<title>n14</title>
<ellipse fill="#004488" stroke="transparent" cx="483.34" cy="-543.31" rx="44.39" ry="18"/>
<text text-anchor="middle" x="483.34" y="-539.61" font-family="Times,serif" font-size="14.00" fill="#f5f5f5">Coruna</text>
</g>
<!-- n12&#45;&#45;n14 -->
<g id="edge20" class="edge">
<title>n12&#45;&#45;n14</title>
<path fill="none" stroke="#ff5722" d="M462.05,-446.83C466.78,-468.3 474.62,-503.8 479.35,-525.23"/>
<text text-anchor="middle" x="456.7" y="-489.85" font-family="Times,serif" font-size="14.00">455</text>
</g>
<!-- n12&#45;&#45;n15 -->
<g id="edge21" class="edge">
<title>n12&#45;&#45;n15</title>
<path fill="none" stroke="#ff5722" d="M460.88,-410.45C463.77,-391.92 468.22,-363.34 471.11,-344.86"/>
<text text-anchor="middle" x="452" y="-381.44" font-family="Times,serif" font-size="14.00">280</text>
</g>
<!-- n13&#45;&#45;n14 -->
<g id="edge22" class="edge">
<title>n13&#45;&#45;n14</title>
<path fill="none" stroke="#ff5722" d="M536.48,-504.24C526.74,-511.41 514.91,-520.1 504.9,-527.47"/>
<text text-anchor="middle" x="506.79" y="-504.58" font-family="Times,serif" font-size="14.00">171</text>
</g>
<!-- n16 -->
<g id="node17" class="node">
<title>n16</title>
<ellipse fill="#004488" stroke="transparent" cx="588.66" cy="-295.01" rx="42.79" ry="18"/>
<text text-anchor="middle" x="588.66" y="-291.31" font-family="Times,serif" font-size="14.00" fill="#f5f5f5">Oviedo</text>
</g>
<!-- n15&#45;&#45;n16 -->
<g id="edge23" class="edge">
<title>n15&#45;&#45;n16</title>
<path fill="none" stroke="#ff5722" d="M508.35,-317.27C522.34,-313.39 538.52,-308.91 552.67,-304.99"/>
<text text-anchor="middle" x="530.45" y="-299.95" font-family="Times,serif" font-size="14.00">304</text>
</g>
</g>
</svg>
