<?xml version="1.0" encoding="UTF-8" standalone="no"?>
<!DOCTYPE svg PUBLIC "-//W3C//DTD SVG 1.1//EN"
 "http://www.w3.org/Graphics/SVG/1.1/DTD/svg11.dtd">
<!-- Generated by graphviz version 2.43.0 (0)
 -->
<!-- Title: G Pages: 1 -->
<svg width="362pt" height="67pt"
 viewBox="0.00 0.00 362.00 67.00" xmlns="http://www.w3.org/2000/svg" xmlns:xlink="http://www.w3.org/1999/xlink">
<g id="graph0" class="graph" transform="scale(1 1) rotate(0) translate(4 63)">
<title>G</title>
<polygon fill="#f5f5f5" stroke="transparent" points="-4,4 -4,-63 358,-63 358,4 -4,4"/>
<text text-anchor="middle" x="177" y="-43.8" font-family="Times,serif" font-size="14.00">Ruta en el viaje 2</text>
<!-- n1 -->
<g id="node1" class="node">
<title>n1</title>
<polygon fill="#004488" stroke="transparent" points="71,-36 0,-36 0,0 71,0 71,-36"/>
<text text-anchor="middle" x="35.5" y="-20" font-family="Times,serif" font-size="7.50" fill="#f5f5f5">Lugar: Murcia</text>
<text text-anchor="middle" x="35.5" y="-12" font-family="Times,serif" font-size="7.50" fill="#f5f5f5">Tiempo: 0</text>
</g>
<!-- n2 -->
<g id="node2" class="node">
<title>n2</title>
<polygon fill="#004488" stroke="transparent" points="208,-36 107,-36 107,0 208,0 208,-36"/>
<text text-anchor="middle" x="157.5" y="-20" font-family="Times,serif" font-size="7.50" fill="#f5f5f5">Lugar: Albacete</text>
<text text-anchor="middle" x="157.5" y="-12" font-family="Times,serif" font-size="7.50" fill="#f5f5f5">Tiempo: 0 + 150 = 150</text>
</g>
<!-- n1&#45;&gt;n2 -->
<g id="edge1" class="edge">
<title>n1&#45;&gt;n2</title>
<path fill="none" stroke="#ff5722" d="M71.21,-18C79.17,-18 87.86,-18 96.54,-18"/>
<polygon fill="#ff5722" stroke="#ff5722" points="96.7,-21.5 106.7,-18 96.7,-14.5 96.7,-21.5"/>
</g>
<!-- n3 -->
<g id="node3" class="node">
<title>n3</title>
<polygon fill="#004488" stroke="transparent" points="354,-36 244,-36 244,0 354,0 354,-36"/>
<text text-anchor="middle" x="299" y="-20" font-family="Times,serif" font-size="7.50" fill="#f5f5f5">Lugar: Madrid</text>
<text text-anchor="middle" x="299" y="-12" font-family="Times,serif" font-size="7.50" fill="#f5f5f5">Tiempo: 150 + 251 = 401</text>
</g>
<!-- n2&#45;&gt;n3 -->
<g id="edge2" class="edge">
<title>n2&#45;&gt;n3</title>
<path fill="none" stroke="#ff5722" d="M208.08,-18C216.41,-18 225.16,-18 233.79,-18"/>
<polygon fill="#ff5722" stroke="#ff5722" points="233.85,-21.5 243.85,-18 233.85,-14.5 233.85,-21.5"/>
</g>
</g>
</svg>
