<?xml version="1.0" encoding="UTF-8" standalone="no"?>
<!DOCTYPE svg PUBLIC "-//W3C//DTD SVG 1.1//EN"
 "http://www.w3.org/Graphics/SVG/1.1/DTD/svg11.dtd">
<!-- Generated by graphviz version 2.43.0 (0)
 -->
<!-- Title: G Pages: 1 -->
<svg width="4311pt" height="227pt"
 viewBox="0.00 0.00 4311.00 227.00" xmlns="http://www.w3.org/2000/svg" xmlns:xlink="http://www.w3.org/1999/xlink">
<g id="graph0" class="graph" transform="scale(1 1) rotate(0) translate(4 223)">
<title>G</title>
<polygon fill="#f5f5f5" stroke="transparent" points="-4,4 -4,-223 4307,-223 4307,4 -4,4"/>
<text text-anchor="middle" x="2151.5" y="-195" font-family="Times,serif" font-size="25.00">Vehículos</text>
<!-- n0 -->
<g id="node1" class="node">
<title>n0</title>
<polygon fill="#004488" stroke="transparent" points="2296,-146.5 2296,-182.5 2508,-182.5 2508,-146.5 2296,-146.5"/>
<text text-anchor="middle" x="2306.5" y="-160.8" font-family="Times,serif" font-size="14.00" fill="#f5f5f5"> </text>
<polyline fill="none" stroke="transparent" points="2317,-146.5 2317,-182.5 "/>
<text text-anchor="middle" x="2354.5" y="-160.8" font-family="Times,serif" font-size="14.00" fill="#f5f5f5">441NEY</text>
<polyline fill="none" stroke="transparent" points="2392,-146.5 2392,-182.5 "/>
<text text-anchor="middle" x="2402.5" y="-160.8" font-family="Times,serif" font-size="14.00" fill="#f5f5f5"> </text>
<polyline fill="none" stroke="transparent" points="2413,-146.5 2413,-182.5 "/>
<text text-anchor="middle" x="2450" y="-160.8" font-family="Times,serif" font-size="14.00" fill="#f5f5f5">760YPU</text>
<polyline fill="none" stroke="transparent" points="2487,-146.5 2487,-182.5 "/>
<text text-anchor="middle" x="2497.5" y="-160.8" font-family="Times,serif" font-size="14.00" fill="#f5f5f5"> </text>
</g>
<!-- n1 -->
<g id="node2" class="node">
<title>n1</title>
<polygon fill="#004488" stroke="transparent" points="852,-73.5 852,-109.5 1250,-109.5 1250,-73.5 852,-73.5"/>
<text text-anchor="middle" x="862.5" y="-87.8" font-family="Times,serif" font-size="14.00" fill="#f5f5f5"> </text>
<polyline fill="none" stroke="transparent" points="873,-73.5 873,-109.5 "/>
<text text-anchor="middle" x="910" y="-87.8" font-family="Times,serif" font-size="14.00" fill="#f5f5f5">216SBS</text>
<polyline fill="none" stroke="transparent" points="947,-73.5 947,-109.5 "/>
<text text-anchor="middle" x="957.5" y="-87.8" font-family="Times,serif" font-size="14.00" fill="#f5f5f5"> </text>
<polyline fill="none" stroke="transparent" points="968,-73.5 968,-109.5 "/>
<text text-anchor="middle" x="1006" y="-87.8" font-family="Times,serif" font-size="14.00" fill="#f5f5f5">281KKD</text>
<polyline fill="none" stroke="transparent" points="1044,-73.5 1044,-109.5 "/>
<text text-anchor="middle" x="1054.5" y="-87.8" font-family="Times,serif" font-size="14.00" fill="#f5f5f5"> </text>
<polyline fill="none" stroke="transparent" points="1065,-73.5 1065,-109.5 "/>
<text text-anchor="middle" x="1100" y="-87.8" font-family="Times,serif" font-size="14.00" fill="#f5f5f5">290INL</text>
<polyline fill="none" stroke="transparent" points="1135,-73.5 1135,-109.5 "/>
<text text-anchor="middle" x="1145.5" y="-87.8" font-family="Times,serif" font-size="14.00" fill="#f5f5f5"> </text>
<polyline fill="none" stroke="transparent" points="1156,-73.5 1156,-109.5 "/>
<text text-anchor="middle" x="1192.5" y="-87.8" font-family="Times,serif" font-size="14.00" fill="#f5f5f5">391MSI</text>
<polyline fill="none" stroke="transparent" points="1229,-73.5 1229,-109.5 "/>
<text text-anchor="middle" x="1239.5" y="-87.8" font-family="Times,serif" font-size="14.00" fill="#f5f5f5"> </text>
</g>
<!-- n0&#45;&gt;n1 -->
<g id="edge1" class="edge">
<title>n0:f0&#45;&gt;n1</title>
<path fill="none" stroke="#ff5722" d="M2295,-164.5C2295,-164.5 1614.75,-125.13 1260.31,-104.61"/>
<polygon fill="#ff5722" stroke="#ff5722" points="1260.37,-101.11 1250.18,-104.03 1259.96,-108.1 1260.37,-101.11"/>
</g>
<!-- n7 -->
<g id="node8" class="node">
<title>n7</title>
<polygon fill="#004488" stroke="transparent" points="2199.5,-73.5 2199.5,-109.5 2606.5,-109.5 2606.5,-73.5 2199.5,-73.5"/>
<text text-anchor="middle" x="2210" y="-87.8" font-family="Times,serif" font-size="14.00" fill="#f5f5f5"> </text>
<polyline fill="none" stroke="transparent" points="2220.5,-73.5 2220.5,-109.5 "/>
<text text-anchor="middle" x="2259.5" y="-87.8" font-family="Times,serif" font-size="14.00" fill="#f5f5f5">498WDL</text>
<polyline fill="none" stroke="transparent" points="2298.5,-73.5 2298.5,-109.5 "/>
<text text-anchor="middle" x="2309" y="-87.8" font-family="Times,serif" font-size="14.00" fill="#f5f5f5"> </text>
<polyline fill="none" stroke="transparent" points="2319.5,-73.5 2319.5,-109.5 "/>
<text text-anchor="middle" x="2356.5" y="-87.8" font-family="Times,serif" font-size="14.00" fill="#f5f5f5">548AKO</text>
<polyline fill="none" stroke="transparent" points="2393.5,-73.5 2393.5,-109.5 "/>
<text text-anchor="middle" x="2404" y="-87.8" font-family="Times,serif" font-size="14.00" fill="#f5f5f5"> </text>
<polyline fill="none" stroke="transparent" points="2414.5,-73.5 2414.5,-109.5 "/>
<text text-anchor="middle" x="2451.5" y="-87.8" font-family="Times,serif" font-size="14.00" fill="#f5f5f5">659GVT</text>
<polyline fill="none" stroke="transparent" points="2488.5,-73.5 2488.5,-109.5 "/>
<text text-anchor="middle" x="2499" y="-87.8" font-family="Times,serif" font-size="14.00" fill="#f5f5f5"> </text>
<polyline fill="none" stroke="transparent" points="2509.5,-73.5 2509.5,-109.5 "/>
<text text-anchor="middle" x="2547.5" y="-87.8" font-family="Times,serif" font-size="14.00" fill="#f5f5f5">693XCN</text>
<polyline fill="none" stroke="transparent" points="2585.5,-73.5 2585.5,-109.5 "/>
<text text-anchor="middle" x="2596" y="-87.8" font-family="Times,serif" font-size="14.00" fill="#f5f5f5"> </text>
</g>
<!-- n0&#45;&gt;n7 -->
<g id="edge7" class="edge">
<title>n0:f1&#45;&gt;n7</title>
<path fill="none" stroke="#ff5722" d="M2403,-146C2403,-146 2403,-133.15 2403,-120.05"/>
<polygon fill="#ff5722" stroke="#ff5722" points="2406.5,-119.72 2403,-109.72 2399.5,-119.72 2406.5,-119.72"/>
</g>
<!-- n13 -->
<g id="node14" class="node">
<title>n13</title>
<polygon fill="#004488" stroke="transparent" points="3482,-73.5 3482,-109.5 3798,-109.5 3798,-73.5 3482,-73.5"/>
<text text-anchor="middle" x="3492.5" y="-87.8" font-family="Times,serif" font-size="14.00" fill="#f5f5f5"> </text>
<polyline fill="none" stroke="transparent" points="3503,-73.5 3503,-109.5 "/>
<text text-anchor="middle" x="3543" y="-87.8" font-family="Times,serif" font-size="14.00" fill="#f5f5f5">812MSU</text>
<polyline fill="none" stroke="transparent" points="3583,-73.5 3583,-109.5 "/>
<text text-anchor="middle" x="3593.5" y="-87.8" font-family="Times,serif" font-size="14.00" fill="#f5f5f5"> </text>
<polyline fill="none" stroke="transparent" points="3604,-73.5 3604,-109.5 "/>
<text text-anchor="middle" x="3641" y="-87.8" font-family="Times,serif" font-size="14.00" fill="#f5f5f5">877GXL</text>
<polyline fill="none" stroke="transparent" points="3678,-73.5 3678,-109.5 "/>
<text text-anchor="middle" x="3688.5" y="-87.8" font-family="Times,serif" font-size="14.00" fill="#f5f5f5"> </text>
<polyline fill="none" stroke="transparent" points="3699,-73.5 3699,-109.5 "/>
<text text-anchor="middle" x="3738" y="-87.8" font-family="Times,serif" font-size="14.00" fill="#f5f5f5">962GGU</text>
<polyline fill="none" stroke="transparent" points="3777,-73.5 3777,-109.5 "/>
<text text-anchor="middle" x="3787.5" y="-87.8" font-family="Times,serif" font-size="14.00" fill="#f5f5f5"> </text>
</g>
<!-- n0&#45;&gt;n13 -->
<g id="edge13" class="edge">
<title>n0:f2&#45;&gt;n13</title>
<path fill="none" stroke="#ff5722" d="M2509,-164.5C2509,-164.5 3156.56,-123.28 3471.7,-103.21"/>
<polygon fill="#ff5722" stroke="#ff5722" points="3472.09,-106.7 3481.85,-102.57 3471.64,-99.71 3472.09,-106.7"/>
</g>
<!-- n2 -->
<g id="node3" class="node">
<title>n2</title>
<polygon fill="#004488" stroke="transparent" points="0,-0.5 0,-36.5 404,-36.5 404,-0.5 0,-0.5"/>
<text text-anchor="middle" x="10.5" y="-14.8" font-family="Times,serif" font-size="14.00" fill="#f5f5f5"> </text>
<polyline fill="none" stroke="transparent" points="21,-0.5 21,-36.5 "/>
<text text-anchor="middle" x="58" y="-14.8" font-family="Times,serif" font-size="14.00" fill="#f5f5f5">100KAR</text>
<polyline fill="none" stroke="transparent" points="95,-0.5 95,-36.5 "/>
<text text-anchor="middle" x="105.5" y="-14.8" font-family="Times,serif" font-size="14.00" fill="#f5f5f5"> </text>
<polyline fill="none" stroke="transparent" points="116,-0.5 116,-36.5 "/>
<text text-anchor="middle" x="153.5" y="-14.8" font-family="Times,serif" font-size="14.00" fill="#f5f5f5">109XGC</text>
<polyline fill="none" stroke="transparent" points="191,-0.5 191,-36.5 "/>
<text text-anchor="middle" x="201.5" y="-14.8" font-family="Times,serif" font-size="14.00" fill="#f5f5f5"> </text>
<polyline fill="none" stroke="transparent" points="212,-0.5 212,-36.5 "/>
<text text-anchor="middle" x="250.5" y="-14.8" font-family="Times,serif" font-size="14.00" fill="#f5f5f5">111UKK</text>
<polyline fill="none" stroke="transparent" points="289,-0.5 289,-36.5 "/>
<text text-anchor="middle" x="299.5" y="-14.8" font-family="Times,serif" font-size="14.00" fill="#f5f5f5"> </text>
<polyline fill="none" stroke="transparent" points="310,-0.5 310,-36.5 "/>
<text text-anchor="middle" x="346.5" y="-14.8" font-family="Times,serif" font-size="14.00" fill="#f5f5f5">116PWJ</text>
<polyline fill="none" stroke="transparent" points="383,-0.5 383,-36.5 "/>
<text text-anchor="middle" x="393.5" y="-14.8" font-family="Times,serif" font-size="14.00" fill="#f5f5f5"> </text>
</g>
<!-- n1&#45;&gt;n2 -->
<g id="edge2" class="edge">
<title>n1:f0&#45;&gt;n2</title>
<path fill="none" stroke="#ff5722" d="M851,-91.5C851,-91.5 557.87,-58.98 365.61,-37.65"/>
<polygon fill="#ff5722" stroke="#ff5722" points="365.72,-34.14 355.39,-36.52 364.95,-41.1 365.72,-34.14"/>
</g>
<!-- n3 -->
<g id="node4" class="node">
<title>n3</title>
<polygon fill="#004488" stroke="transparent" points="440,-0.5 440,-36.5 832,-36.5 832,-0.5 440,-0.5"/>
<text text-anchor="middle" x="450.5" y="-14.8" font-family="Times,serif" font-size="14.00" fill="#f5f5f5"> </text>
<polyline fill="none" stroke="transparent" points="461,-0.5 461,-36.5 "/>
<text text-anchor="middle" x="499.5" y="-14.8" font-family="Times,serif" font-size="14.00" fill="#f5f5f5">244AOH</text>
<polyline fill="none" stroke="transparent" points="538,-0.5 538,-36.5 "/>
<text text-anchor="middle" x="548.5" y="-14.8" font-family="Times,serif" font-size="14.00" fill="#f5f5f5"> </text>
<polyline fill="none" stroke="transparent" points="559,-0.5 559,-36.5 "/>
<text text-anchor="middle" x="594.5" y="-14.8" font-family="Times,serif" font-size="14.00" fill="#f5f5f5">266IXH</text>
<polyline fill="none" stroke="transparent" points="630,-0.5 630,-36.5 "/>
<text text-anchor="middle" x="640.5" y="-14.8" font-family="Times,serif" font-size="14.00" fill="#f5f5f5"> </text>
<polyline fill="none" stroke="transparent" points="651,-0.5 651,-36.5 "/>
<text text-anchor="middle" x="686.5" y="-14.8" font-family="Times,serif" font-size="14.00" fill="#f5f5f5">268LVP</text>
<polyline fill="none" stroke="transparent" points="722,-0.5 722,-36.5 "/>
<text text-anchor="middle" x="732.5" y="-14.8" font-family="Times,serif" font-size="14.00" fill="#f5f5f5"> </text>
<polyline fill="none" stroke="transparent" points="743,-0.5 743,-36.5 "/>
<text text-anchor="middle" x="777" y="-14.8" font-family="Times,serif" font-size="14.00" fill="#f5f5f5">279IYP</text>
<polyline fill="none" stroke="transparent" points="811,-0.5 811,-36.5 "/>
<text text-anchor="middle" x="821.5" y="-14.8" font-family="Times,serif" font-size="14.00" fill="#f5f5f5"> </text>
</g>
<!-- n1&#45;&gt;n3 -->
<g id="edge3" class="edge">
<title>n1:f1&#45;&gt;n3</title>
<path fill="none" stroke="#ff5722" d="M957,-73C957,-73 840.64,-53.61 748.03,-38.17"/>
<polygon fill="#ff5722" stroke="#ff5722" points="748.45,-34.69 738.01,-36.5 747.3,-41.6 748.45,-34.69"/>
</g>
<!-- n4 -->
<g id="node5" class="node">
<title>n4</title>
<polygon fill="#004488" stroke="transparent" points="868.5,-0.5 868.5,-36.5 1083.5,-36.5 1083.5,-0.5 868.5,-0.5"/>
<text text-anchor="middle" x="879" y="-14.8" font-family="Times,serif" font-size="14.00" fill="#f5f5f5"> </text>
<polyline fill="none" stroke="transparent" points="889.5,-0.5 889.5,-36.5 "/>
<text text-anchor="middle" x="926.5" y="-14.8" font-family="Times,serif" font-size="14.00" fill="#f5f5f5">284SEX</text>
<polyline fill="none" stroke="transparent" points="963.5,-0.5 963.5,-36.5 "/>
<text text-anchor="middle" x="974" y="-14.8" font-family="Times,serif" font-size="14.00" fill="#f5f5f5"> </text>
<polyline fill="none" stroke="transparent" points="984.5,-0.5 984.5,-36.5 "/>
<text text-anchor="middle" x="1023.5" y="-14.8" font-family="Times,serif" font-size="14.00" fill="#f5f5f5">287QQN</text>
<polyline fill="none" stroke="transparent" points="1062.5,-0.5 1062.5,-36.5 "/>
<text text-anchor="middle" x="1073" y="-14.8" font-family="Times,serif" font-size="14.00" fill="#f5f5f5"> </text>
</g>
<!-- n1&#45;&gt;n4 -->
<g id="edge4" class="edge">
<title>n1:f2&#45;&gt;n4</title>
<path fill="none" stroke="#ff5722" d="M1055,-73C1055,-73 1031.25,-56.92 1009.79,-42.39"/>
<polygon fill="#ff5722" stroke="#ff5722" points="1011.67,-39.43 1001.43,-36.72 1007.75,-45.23 1011.67,-39.43"/>
</g>
<!-- n5 -->
<g id="node6" class="node">
<title>n5</title>
<polygon fill="#004488" stroke="transparent" points="1119.5,-0.5 1119.5,-36.5 1330.5,-36.5 1330.5,-0.5 1119.5,-0.5"/>
<text text-anchor="middle" x="1130" y="-14.8" font-family="Times,serif" font-size="14.00" fill="#f5f5f5"> </text>
<polyline fill="none" stroke="transparent" points="1140.5,-0.5 1140.5,-36.5 "/>
<text text-anchor="middle" x="1177.5" y="-14.8" font-family="Times,serif" font-size="14.00" fill="#f5f5f5">303LNT</text>
<polyline fill="none" stroke="transparent" points="1214.5,-0.5 1214.5,-36.5 "/>
<text text-anchor="middle" x="1225" y="-14.8" font-family="Times,serif" font-size="14.00" fill="#f5f5f5"> </text>
<polyline fill="none" stroke="transparent" points="1235.5,-0.5 1235.5,-36.5 "/>
<text text-anchor="middle" x="1272.5" y="-14.8" font-family="Times,serif" font-size="14.00" fill="#f5f5f5">384AAE</text>
<polyline fill="none" stroke="transparent" points="1309.5,-0.5 1309.5,-36.5 "/>
<text text-anchor="middle" x="1320" y="-14.8" font-family="Times,serif" font-size="14.00" fill="#f5f5f5"> </text>
</g>
<!-- n1&#45;&gt;n5 -->
<g id="edge5" class="edge">
<title>n1:f3&#45;&gt;n5</title>
<path fill="none" stroke="#ff5722" d="M1146,-73C1146,-73 1169.75,-56.92 1191.21,-42.39"/>
<polygon fill="#ff5722" stroke="#ff5722" points="1193.25,-45.23 1199.57,-36.72 1189.33,-39.43 1193.25,-45.23"/>
</g>
<!-- n6 -->
<g id="node7" class="node">
<title>n6</title>
<polygon fill="#004488" stroke="transparent" points="1367,-0.5 1367,-36.5 1579,-36.5 1579,-0.5 1367,-0.5"/>
<text text-anchor="middle" x="1377.5" y="-14.8" font-family="Times,serif" font-size="14.00" fill="#f5f5f5"> </text>
<polyline fill="none" stroke="transparent" points="1388,-0.5 1388,-36.5 "/>
<text text-anchor="middle" x="1425" y="-14.8" font-family="Times,serif" font-size="14.00" fill="#f5f5f5">413GRT</text>
<polyline fill="none" stroke="transparent" points="1462,-0.5 1462,-36.5 "/>
<text text-anchor="middle" x="1472.5" y="-14.8" font-family="Times,serif" font-size="14.00" fill="#f5f5f5"> </text>
<polyline fill="none" stroke="transparent" points="1483,-0.5 1483,-36.5 "/>
<text text-anchor="middle" x="1520.5" y="-14.8" font-family="Times,serif" font-size="14.00" fill="#f5f5f5">419QXC</text>
<polyline fill="none" stroke="transparent" points="1558,-0.5 1558,-36.5 "/>
<text text-anchor="middle" x="1568.5" y="-14.8" font-family="Times,serif" font-size="14.00" fill="#f5f5f5"> </text>
</g>
<!-- n1&#45;&gt;n6 -->
<g id="edge6" class="edge">
<title>n1:f4&#45;&gt;n6</title>
<path fill="none" stroke="#ff5722" d="M1251,-91.5C1251,-91.5 1344.86,-61.06 1410.52,-39.76"/>
<polygon fill="#ff5722" stroke="#ff5722" points="1411.96,-42.98 1420.39,-36.56 1409.8,-36.32 1411.96,-42.98"/>
</g>
<!-- n8 -->
<g id="node9" class="node">
<title>n8</title>
<polygon fill="#004488" stroke="transparent" points="1615.5,-0.5 1615.5,-36.5 1920.5,-36.5 1920.5,-0.5 1615.5,-0.5"/>
<text text-anchor="middle" x="1626" y="-14.8" font-family="Times,serif" font-size="14.00" fill="#f5f5f5"> </text>
<polyline fill="none" stroke="transparent" points="1636.5,-0.5 1636.5,-36.5 "/>
<text text-anchor="middle" x="1673.5" y="-14.8" font-family="Times,serif" font-size="14.00" fill="#f5f5f5">444YOZ</text>
<polyline fill="none" stroke="transparent" points="1710.5,-0.5 1710.5,-36.5 "/>
<text text-anchor="middle" x="1721" y="-14.8" font-family="Times,serif" font-size="14.00" fill="#f5f5f5"> </text>
<polyline fill="none" stroke="transparent" points="1731.5,-0.5 1731.5,-36.5 "/>
<text text-anchor="middle" x="1768.5" y="-14.8" font-family="Times,serif" font-size="14.00" fill="#f5f5f5">455CXZ</text>
<polyline fill="none" stroke="transparent" points="1805.5,-0.5 1805.5,-36.5 "/>
<text text-anchor="middle" x="1816" y="-14.8" font-family="Times,serif" font-size="14.00" fill="#f5f5f5"> </text>
<polyline fill="none" stroke="transparent" points="1826.5,-0.5 1826.5,-36.5 "/>
<text text-anchor="middle" x="1863" y="-14.8" font-family="Times,serif" font-size="14.00" fill="#f5f5f5">485RYE</text>
<polyline fill="none" stroke="transparent" points="1899.5,-0.5 1899.5,-36.5 "/>
<text text-anchor="middle" x="1910" y="-14.8" font-family="Times,serif" font-size="14.00" fill="#f5f5f5"> </text>
</g>
<!-- n7&#45;&gt;n8 -->
<g id="edge8" class="edge">
<title>n7:f0&#45;&gt;n8</title>
<path fill="none" stroke="#ff5722" d="M2198,-91.5C2198,-91.5 2007.25,-59.56 1879.84,-38.23"/>
<polygon fill="#ff5722" stroke="#ff5722" points="1880.07,-34.72 1869.63,-36.52 1878.92,-41.62 1880.07,-34.72"/>
</g>
<!-- n9 -->
<g id="node10" class="node">
<title>n9</title>
<polygon fill="#004488" stroke="transparent" points="1956.5,-0.5 1956.5,-36.5 2263.5,-36.5 2263.5,-0.5 1956.5,-0.5"/>
<text text-anchor="middle" x="1967" y="-14.8" font-family="Times,serif" font-size="14.00" fill="#f5f5f5"> </text>
<polyline fill="none" stroke="transparent" points="1977.5,-0.5 1977.5,-36.5 "/>
<text text-anchor="middle" x="2016.5" y="-14.8" font-family="Times,serif" font-size="14.00" fill="#f5f5f5">506XRM</text>
<polyline fill="none" stroke="transparent" points="2055.5,-0.5 2055.5,-36.5 "/>
<text text-anchor="middle" x="2066" y="-14.8" font-family="Times,serif" font-size="14.00" fill="#f5f5f5"> </text>
<polyline fill="none" stroke="transparent" points="2076.5,-0.5 2076.5,-36.5 "/>
<text text-anchor="middle" x="2113.5" y="-14.8" font-family="Times,serif" font-size="14.00" fill="#f5f5f5">545BZB</text>
<polyline fill="none" stroke="transparent" points="2150.5,-0.5 2150.5,-36.5 "/>
<text text-anchor="middle" x="2161" y="-14.8" font-family="Times,serif" font-size="14.00" fill="#f5f5f5"> </text>
<polyline fill="none" stroke="transparent" points="2171.5,-0.5 2171.5,-36.5 "/>
<text text-anchor="middle" x="2207" y="-14.8" font-family="Times,serif" font-size="14.00" fill="#f5f5f5">546XIH</text>
<polyline fill="none" stroke="transparent" points="2242.5,-0.5 2242.5,-36.5 "/>
<text text-anchor="middle" x="2253" y="-14.8" font-family="Times,serif" font-size="14.00" fill="#f5f5f5"> </text>
</g>
<!-- n7&#45;&gt;n9 -->
<g id="edge9" class="edge">
<title>n7:f1&#45;&gt;n9</title>
<path fill="none" stroke="#ff5722" d="M2309,-73C2309,-73 2239.75,-54.38 2182.95,-39.11"/>
<polygon fill="#ff5722" stroke="#ff5722" points="2183.8,-35.72 2173.24,-36.5 2181.99,-42.48 2183.8,-35.72"/>
</g>
<!-- n10 -->
<g id="node11" class="node">
<title>n10</title>
<polygon fill="#004488" stroke="transparent" points="2300,-0.5 2300,-36.5 2508,-36.5 2508,-0.5 2300,-0.5"/>
<text text-anchor="middle" x="2310.5" y="-14.8" font-family="Times,serif" font-size="14.00" fill="#f5f5f5"> </text>
<polyline fill="none" stroke="transparent" points="2321,-0.5 2321,-36.5 "/>
<text text-anchor="middle" x="2358" y="-14.8" font-family="Times,serif" font-size="14.00" fill="#f5f5f5">617VUY</text>
<polyline fill="none" stroke="transparent" points="2395,-0.5 2395,-36.5 "/>
<text text-anchor="middle" x="2405.5" y="-14.8" font-family="Times,serif" font-size="14.00" fill="#f5f5f5"> </text>
<polyline fill="none" stroke="transparent" points="2416,-0.5 2416,-36.5 "/>
<text text-anchor="middle" x="2451.5" y="-14.8" font-family="Times,serif" font-size="14.00" fill="#f5f5f5">635NXJ</text>
<polyline fill="none" stroke="transparent" points="2487,-0.5 2487,-36.5 "/>
<text text-anchor="middle" x="2497.5" y="-14.8" font-family="Times,serif" font-size="14.00" fill="#f5f5f5"> </text>
</g>
<!-- n7&#45;&gt;n10 -->
<g id="edge10" class="edge">
<title>n7:f2&#45;&gt;n10</title>
<path fill="none" stroke="#ff5722" d="M2404,-73C2404,-73 2404,-60.15 2404,-47.05"/>
<polygon fill="#ff5722" stroke="#ff5722" points="2407.5,-46.72 2404,-36.72 2400.5,-46.72 2407.5,-46.72"/>
</g>
<!-- n11 -->
<g id="node12" class="node">
<title>n11</title>
<polygon fill="#004488" stroke="transparent" points="2544,-0.5 2544,-36.5 2850,-36.5 2850,-0.5 2544,-0.5"/>
<text text-anchor="middle" x="2554.5" y="-14.8" font-family="Times,serif" font-size="14.00" fill="#f5f5f5"> </text>
<polyline fill="none" stroke="transparent" points="2565,-0.5 2565,-36.5 "/>
<text text-anchor="middle" x="2603" y="-14.8" font-family="Times,serif" font-size="14.00" fill="#f5f5f5">660DQS</text>
<polyline fill="none" stroke="transparent" points="2641,-0.5 2641,-36.5 "/>
<text text-anchor="middle" x="2651.5" y="-14.8" font-family="Times,serif" font-size="14.00" fill="#f5f5f5"> </text>
<polyline fill="none" stroke="transparent" points="2662,-0.5 2662,-36.5 "/>
<text text-anchor="middle" x="2699" y="-14.8" font-family="Times,serif" font-size="14.00" fill="#f5f5f5">666TUA</text>
<polyline fill="none" stroke="transparent" points="2736,-0.5 2736,-36.5 "/>
<text text-anchor="middle" x="2746.5" y="-14.8" font-family="Times,serif" font-size="14.00" fill="#f5f5f5"> </text>
<polyline fill="none" stroke="transparent" points="2757,-0.5 2757,-36.5 "/>
<text text-anchor="middle" x="2793" y="-14.8" font-family="Times,serif" font-size="14.00" fill="#f5f5f5">678FTV</text>
<polyline fill="none" stroke="transparent" points="2829,-0.5 2829,-36.5 "/>
<text text-anchor="middle" x="2839.5" y="-14.8" font-family="Times,serif" font-size="14.00" fill="#f5f5f5"> </text>
</g>
<!-- n7&#45;&gt;n11 -->
<g id="edge11" class="edge">
<title>n7:f3&#45;&gt;n11</title>
<path fill="none" stroke="#ff5722" d="M2499,-73C2499,-73 2567.9,-54.38 2624.41,-39.11"/>
<polygon fill="#ff5722" stroke="#ff5722" points="2625.34,-42.49 2634.08,-36.5 2623.51,-35.73 2625.34,-42.49"/>
</g>
<!-- n12 -->
<g id="node13" class="node">
<title>n12</title>
<polygon fill="#004488" stroke="transparent" points="2886,-0.5 2886,-36.5 3196,-36.5 3196,-0.5 2886,-0.5"/>
<text text-anchor="middle" x="2896.5" y="-14.8" font-family="Times,serif" font-size="14.00" fill="#f5f5f5"> </text>
<polyline fill="none" stroke="transparent" points="2907,-0.5 2907,-36.5 "/>
<text text-anchor="middle" x="2946.5" y="-14.8" font-family="Times,serif" font-size="14.00" fill="#f5f5f5">709HMY</text>
<polyline fill="none" stroke="transparent" points="2986,-0.5 2986,-36.5 "/>
<text text-anchor="middle" x="2996.5" y="-14.8" font-family="Times,serif" font-size="14.00" fill="#f5f5f5"> </text>
<polyline fill="none" stroke="transparent" points="3007,-0.5 3007,-36.5 "/>
<text text-anchor="middle" x="3046.5" y="-14.8" font-family="Times,serif" font-size="14.00" fill="#f5f5f5">746GUH</text>
<polyline fill="none" stroke="transparent" points="3086,-0.5 3086,-36.5 "/>
<text text-anchor="middle" x="3096.5" y="-14.8" font-family="Times,serif" font-size="14.00" fill="#f5f5f5"> </text>
<polyline fill="none" stroke="transparent" points="3107,-0.5 3107,-36.5 "/>
<text text-anchor="middle" x="3141" y="-14.8" font-family="Times,serif" font-size="14.00" fill="#f5f5f5">748ILF</text>
<polyline fill="none" stroke="transparent" points="3175,-0.5 3175,-36.5 "/>
<text text-anchor="middle" x="3185.5" y="-14.8" font-family="Times,serif" font-size="14.00" fill="#f5f5f5"> </text>
</g>
<!-- n7&#45;&gt;n12 -->
<g id="edge12" class="edge">
<title>n7:f4&#45;&gt;n12</title>
<path fill="none" stroke="#ff5722" d="M2608,-91.5C2608,-91.5 2800.47,-59.5 2928.77,-38.16"/>
<polygon fill="#ff5722" stroke="#ff5722" points="2929.37,-41.61 2938.66,-36.52 2928.22,-34.71 2929.37,-41.61"/>
</g>
<!-- n14 -->
<g id="node15" class="node">
<title>n14</title>
<polygon fill="#004488" stroke="transparent" points="3232,-0.5 3232,-36.5 3448,-36.5 3448,-0.5 3232,-0.5"/>
<text text-anchor="middle" x="3242.5" y="-14.8" font-family="Times,serif" font-size="14.00" fill="#f5f5f5"> </text>
<polyline fill="none" stroke="transparent" points="3253,-0.5 3253,-36.5 "/>
<text text-anchor="middle" x="3288.5" y="-14.8" font-family="Times,serif" font-size="14.00" fill="#f5f5f5">785BUI</text>
<polyline fill="none" stroke="transparent" points="3324,-0.5 3324,-36.5 "/>
<text text-anchor="middle" x="3334.5" y="-14.8" font-family="Times,serif" font-size="14.00" fill="#f5f5f5"> </text>
<polyline fill="none" stroke="transparent" points="3345,-0.5 3345,-36.5 "/>
<text text-anchor="middle" x="3386" y="-14.8" font-family="Times,serif" font-size="14.00" fill="#f5f5f5">807WWV</text>
<polyline fill="none" stroke="transparent" points="3427,-0.5 3427,-36.5 "/>
<text text-anchor="middle" x="3437.5" y="-14.8" font-family="Times,serif" font-size="14.00" fill="#f5f5f5"> </text>
</g>
<!-- n13&#45;&gt;n14 -->
<g id="edge14" class="edge">
<title>n13:f0&#45;&gt;n14</title>
<path fill="none" stroke="#ff5722" d="M3481,-91.5C3481,-91.5 3424.05,-62.42 3382.54,-41.22"/>
<polygon fill="#ff5722" stroke="#ff5722" points="3383.91,-37.99 3373.42,-36.56 3380.73,-44.23 3383.91,-37.99"/>
</g>
<!-- n15 -->
<g id="node16" class="node">
<title>n15</title>
<polygon fill="#004488" stroke="transparent" points="3484.5,-0.5 3484.5,-36.5 3701.5,-36.5 3701.5,-0.5 3484.5,-0.5"/>
<text text-anchor="middle" x="3495" y="-14.8" font-family="Times,serif" font-size="14.00" fill="#f5f5f5"> </text>
<polyline fill="none" stroke="transparent" points="3505.5,-0.5 3505.5,-36.5 "/>
<text text-anchor="middle" x="3544" y="-14.8" font-family="Times,serif" font-size="14.00" fill="#f5f5f5">843HFN</text>
<polyline fill="none" stroke="transparent" points="3582.5,-0.5 3582.5,-36.5 "/>
<text text-anchor="middle" x="3593" y="-14.8" font-family="Times,serif" font-size="14.00" fill="#f5f5f5"> </text>
<polyline fill="none" stroke="transparent" points="3603.5,-0.5 3603.5,-36.5 "/>
<text text-anchor="middle" x="3642" y="-14.8" font-family="Times,serif" font-size="14.00" fill="#f5f5f5">860LHH</text>
<polyline fill="none" stroke="transparent" points="3680.5,-0.5 3680.5,-36.5 "/>
<text text-anchor="middle" x="3691" y="-14.8" font-family="Times,serif" font-size="14.00" fill="#f5f5f5"> </text>
</g>
<!-- n13&#45;&gt;n15 -->
<g id="edge15" class="edge">
<title>n13:f1&#45;&gt;n15</title>
<path fill="none" stroke="#ff5722" d="M3593,-73C3593,-73 3593,-60.15 3593,-47.05"/>
<polygon fill="#ff5722" stroke="#ff5722" points="3596.5,-46.72 3593,-36.72 3589.5,-46.72 3596.5,-46.72"/>
</g>
<!-- n16 -->
<g id="node17" class="node">
<title>n16</title>
<polygon fill="#004488" stroke="transparent" points="3737.5,-0.5 3737.5,-36.5 3950.5,-36.5 3950.5,-0.5 3737.5,-0.5"/>
<text text-anchor="middle" x="3748" y="-14.8" font-family="Times,serif" font-size="14.00" fill="#f5f5f5"> </text>
<polyline fill="none" stroke="transparent" points="3758.5,-0.5 3758.5,-36.5 "/>
<text text-anchor="middle" x="3795.5" y="-14.8" font-family="Times,serif" font-size="14.00" fill="#f5f5f5">920SKO</text>
<polyline fill="none" stroke="transparent" points="3832.5,-0.5 3832.5,-36.5 "/>
<text text-anchor="middle" x="3843" y="-14.8" font-family="Times,serif" font-size="14.00" fill="#f5f5f5"> </text>
<polyline fill="none" stroke="transparent" points="3853.5,-0.5 3853.5,-36.5 "/>
<text text-anchor="middle" x="3891.5" y="-14.8" font-family="Times,serif" font-size="14.00" fill="#f5f5f5">947GGV</text>
<polyline fill="none" stroke="transparent" points="3929.5,-0.5 3929.5,-36.5 "/>
<text text-anchor="middle" x="3940" y="-14.8" font-family="Times,serif" font-size="14.00" fill="#f5f5f5"> </text>
</g>
<!-- n13&#45;&gt;n16 -->
<g id="edge16" class="edge">
<title>n13:f2&#45;&gt;n16</title>
<path fill="none" stroke="#ff5722" d="M3689,-73C3689,-73 3741.22,-54.97 3785.04,-39.85"/>
<polygon fill="#ff5722" stroke="#ff5722" points="3786.22,-43.15 3794.53,-36.57 3783.94,-36.53 3786.22,-43.15"/>
</g>
<!-- n17 -->
<g id="node18" class="node">
<title>n17</title>
<polygon fill="#004488" stroke="transparent" points="3987,-0.5 3987,-36.5 4303,-36.5 4303,-0.5 3987,-0.5"/>
<text text-anchor="middle" x="3997.5" y="-14.8" font-family="Times,serif" font-size="14.00" fill="#f5f5f5"> </text>
<polyline fill="none" stroke="transparent" points="4008,-0.5 4008,-36.5 "/>
<text text-anchor="middle" x="4046.5" y="-14.8" font-family="Times,serif" font-size="14.00" fill="#f5f5f5">970GUB</text>
<polyline fill="none" stroke="transparent" points="4085,-0.5 4085,-36.5 "/>
<text text-anchor="middle" x="4095.5" y="-14.8" font-family="Times,serif" font-size="14.00" fill="#f5f5f5"> </text>
<polyline fill="none" stroke="transparent" points="4106,-0.5 4106,-36.5 "/>
<text text-anchor="middle" x="4145" y="-14.8" font-family="Times,serif" font-size="14.00" fill="#f5f5f5">979DTM</text>
<polyline fill="none" stroke="transparent" points="4184,-0.5 4184,-36.5 "/>
<text text-anchor="middle" x="4194.5" y="-14.8" font-family="Times,serif" font-size="14.00" fill="#f5f5f5"> </text>
<polyline fill="none" stroke="transparent" points="4205,-0.5 4205,-36.5 "/>
<text text-anchor="middle" x="4243.5" y="-14.8" font-family="Times,serif" font-size="14.00" fill="#f5f5f5">982ONR</text>
<polyline fill="none" stroke="transparent" points="4282,-0.5 4282,-36.5 "/>
<text text-anchor="middle" x="4292.5" y="-14.8" font-family="Times,serif" font-size="14.00" fill="#f5f5f5"> </text>
</g>
<!-- n13&#45;&gt;n17 -->
<g id="edge17" class="edge">
<title>n13:f3&#45;&gt;n17</title>
<path fill="none" stroke="#ff5722" d="M3799,-91.5C3799,-91.5 3950.43,-59.99 4052.93,-38.66"/>
<polygon fill="#ff5722" stroke="#ff5722" points="4053.93,-42.03 4063,-36.56 4052.5,-35.17 4053.93,-42.03"/>
</g>
</g>
</svg>
