<?xml version="1.0" encoding="UTF-8" standalone="no"?>
<!DOCTYPE svg PUBLIC "-//W3C//DTD SVG 1.1//EN"
 "http://www.w3.org/Graphics/SVG/1.1/DTD/svg11.dtd">
<!-- Generated by graphviz version 2.43.0 (0)
 -->
<!-- Title: G Pages: 1 -->
<svg width="1716pt" height="227pt"
 viewBox="0.00 0.00 1716.00 227.00" xmlns="http://www.w3.org/2000/svg" xmlns:xlink="http://www.w3.org/1999/xlink">
<g id="graph0" class="graph" transform="scale(1 1) rotate(0) translate(4 223)">
<title>G</title>
<polygon fill="#f5f5f5" stroke="transparent" points="-4,4 -4,-223 1712,-223 1712,4 -4,4"/>
<text text-anchor="middle" x="854" y="-195" font-family="Times,serif" font-size="25.00">Vehículos</text>
<!-- n0 -->
<g id="node1" class="node">
<title>n0</title>
<polygon fill="#004488" stroke="transparent" points="771,-146.5 771,-182.5 882,-182.5 882,-146.5 771,-146.5"/>
<text text-anchor="middle" x="781.5" y="-160.8" font-family="Times,serif" font-size="14.00" fill="#f5f5f5"> </text>
<polyline fill="none" stroke="transparent" points="792,-146.5 792,-182.5 "/>
<text text-anchor="middle" x="826.5" y="-160.8" font-family="Times,serif" font-size="14.00" fill="#f5f5f5">I889RS</text>
<polyline fill="none" stroke="transparent" points="861,-146.5 861,-182.5 "/>
<text text-anchor="middle" x="871.5" y="-160.8" font-family="Times,serif" font-size="14.00" fill="#f5f5f5"> </text>
</g>
<!-- n1 -->
<g id="node2" class="node">
<title>n1</title>
<polygon fill="#004488" stroke="transparent" points="320,-73.5 320,-109.5 535,-109.5 535,-73.5 320,-73.5"/>
<text text-anchor="middle" x="330.5" y="-87.8" font-family="Times,serif" font-size="14.00" fill="#f5f5f5"> </text>
<polyline fill="none" stroke="transparent" points="341,-73.5 341,-109.5 "/>
<text text-anchor="middle" x="378.5" y="-87.8" font-family="Times,serif" font-size="14.00" fill="#f5f5f5">C223FG</text>
<polyline fill="none" stroke="transparent" points="416,-73.5 416,-109.5 "/>
<text text-anchor="middle" x="426.5" y="-87.8" font-family="Times,serif" font-size="14.00" fill="#f5f5f5"> </text>
<polyline fill="none" stroke="transparent" points="437,-73.5 437,-109.5 "/>
<text text-anchor="middle" x="475.5" y="-87.8" font-family="Times,serif" font-size="14.00" fill="#f5f5f5">F556LM</text>
<polyline fill="none" stroke="transparent" points="514,-73.5 514,-109.5 "/>
<text text-anchor="middle" x="524.5" y="-87.8" font-family="Times,serif" font-size="14.00" fill="#f5f5f5"> </text>
</g>
<!-- n0&#45;&gt;n1 -->
<g id="edge1" class="edge">
<title>n0:f0&#45;&gt;n1</title>
<path fill="none" stroke="#ff5722" d="M769.5,-164.5C769.5,-164.5 619.82,-132.99 518.5,-111.66"/>
<polygon fill="#ff5722" stroke="#ff5722" points="519.06,-108.2 508.55,-109.56 517.61,-115.05 519.06,-108.2"/>
</g>
<!-- n5 -->
<g id="node6" class="node">
<title>n5</title>
<polygon fill="#004488" stroke="transparent" points="998.5,-73.5 998.5,-109.5 1304.5,-109.5 1304.5,-73.5 998.5,-73.5"/>
<text text-anchor="middle" x="1009" y="-87.8" font-family="Times,serif" font-size="14.00" fill="#f5f5f5"> </text>
<polyline fill="none" stroke="transparent" points="1019.5,-73.5 1019.5,-109.5 "/>
<text text-anchor="middle" x="1055" y="-87.8" font-family="Times,serif" font-size="14.00" fill="#f5f5f5">L222XY</text>
<polyline fill="none" stroke="transparent" points="1090.5,-73.5 1090.5,-109.5 "/>
<text text-anchor="middle" x="1101" y="-87.8" font-family="Times,serif" font-size="14.00" fill="#f5f5f5"> </text>
<polyline fill="none" stroke="transparent" points="1111.5,-73.5 1111.5,-109.5 "/>
<text text-anchor="middle" x="1150" y="-87.8" font-family="Times,serif" font-size="14.00" fill="#f5f5f5">O555CD</text>
<polyline fill="none" stroke="transparent" points="1188.5,-73.5 1188.5,-109.5 "/>
<text text-anchor="middle" x="1199" y="-87.8" font-family="Times,serif" font-size="14.00" fill="#f5f5f5"> </text>
<polyline fill="none" stroke="transparent" points="1209.5,-73.5 1209.5,-109.5 "/>
<text text-anchor="middle" x="1246.5" y="-87.8" font-family="Times,serif" font-size="14.00" fill="#f5f5f5">P123AB</text>
<polyline fill="none" stroke="transparent" points="1283.5,-73.5 1283.5,-109.5 "/>
<text text-anchor="middle" x="1294" y="-87.8" font-family="Times,serif" font-size="14.00" fill="#f5f5f5"> </text>
</g>
<!-- n0&#45;&gt;n5 -->
<g id="edge5" class="edge">
<title>n0:f1&#45;&gt;n5</title>
<path fill="none" stroke="#ff5722" d="M883.5,-164.5C883.5,-164.5 998.67,-133.56 1078.02,-112.24"/>
<polygon fill="#ff5722" stroke="#ff5722" points="1079.24,-115.54 1087.99,-109.56 1077.42,-108.78 1079.24,-115.54"/>
</g>
<!-- n2 -->
<g id="node3" class="node">
<title>n2</title>
<polygon fill="#004488" stroke="transparent" points="0,-0.5 0,-36.5 213,-36.5 213,-0.5 0,-0.5"/>
<text text-anchor="middle" x="10.5" y="-14.8" font-family="Times,serif" font-size="14.00" fill="#f5f5f5"> </text>
<polyline fill="none" stroke="transparent" points="21,-0.5 21,-36.5 "/>
<text text-anchor="middle" x="58" y="-14.8" font-family="Times,serif" font-size="14.00" fill="#f5f5f5">A001BC</text>
<polyline fill="none" stroke="transparent" points="95,-0.5 95,-36.5 "/>
<text text-anchor="middle" x="105.5" y="-14.8" font-family="Times,serif" font-size="14.00" fill="#f5f5f5"> </text>
<polyline fill="none" stroke="transparent" points="116,-0.5 116,-36.5 "/>
<text text-anchor="middle" x="154" y="-14.8" font-family="Times,serif" font-size="14.00" fill="#f5f5f5">B112DE</text>
<polyline fill="none" stroke="transparent" points="192,-0.5 192,-36.5 "/>
<text text-anchor="middle" x="202.5" y="-14.8" font-family="Times,serif" font-size="14.00" fill="#f5f5f5"> </text>
</g>
<!-- n1&#45;&gt;n2 -->
<g id="edge2" class="edge">
<title>n1:f0&#45;&gt;n2</title>
<path fill="none" stroke="#ff5722" d="M318.5,-91.5C318.5,-91.5 229.24,-61.18 166.56,-39.9"/>
<polygon fill="#ff5722" stroke="#ff5722" points="167.34,-36.46 156.74,-36.56 165.08,-43.09 167.34,-36.46"/>
</g>
<!-- n3 -->
<g id="node4" class="node">
<title>n3</title>
<polygon fill="#004488" stroke="transparent" points="249,-0.5 249,-36.5 454,-36.5 454,-0.5 249,-0.5"/>
<text text-anchor="middle" x="259.5" y="-14.8" font-family="Times,serif" font-size="14.00" fill="#f5f5f5"> </text>
<polyline fill="none" stroke="transparent" points="270,-0.5 270,-36.5 "/>
<text text-anchor="middle" x="306" y="-14.8" font-family="Times,serif" font-size="14.00" fill="#f5f5f5">D334HI</text>
<polyline fill="none" stroke="transparent" points="342,-0.5 342,-36.5 "/>
<text text-anchor="middle" x="352.5" y="-14.8" font-family="Times,serif" font-size="14.00" fill="#f5f5f5"> </text>
<polyline fill="none" stroke="transparent" points="363,-0.5 363,-36.5 "/>
<text text-anchor="middle" x="398" y="-14.8" font-family="Times,serif" font-size="14.00" fill="#f5f5f5">E445JK</text>
<polyline fill="none" stroke="transparent" points="433,-0.5 433,-36.5 "/>
<text text-anchor="middle" x="443.5" y="-14.8" font-family="Times,serif" font-size="14.00" fill="#f5f5f5"> </text>
</g>
<!-- n1&#45;&gt;n3 -->
<g id="edge3" class="edge">
<title>n1:f1&#45;&gt;n3</title>
<path fill="none" stroke="#ff5722" d="M426.5,-73C426.5,-73 404.15,-57.06 383.85,-42.58"/>
<polygon fill="#ff5722" stroke="#ff5722" points="385.82,-39.68 375.64,-36.72 381.75,-45.38 385.82,-39.68"/>
</g>
<!-- n4 -->
<g id="node5" class="node">
<title>n4</title>
<polygon fill="#004488" stroke="transparent" points="490.5,-0.5 490.5,-36.5 708.5,-36.5 708.5,-0.5 490.5,-0.5"/>
<text text-anchor="middle" x="501" y="-14.8" font-family="Times,serif" font-size="14.00" fill="#f5f5f5"> </text>
<polyline fill="none" stroke="transparent" points="511.5,-0.5 511.5,-36.5 "/>
<text text-anchor="middle" x="550.5" y="-14.8" font-family="Times,serif" font-size="14.00" fill="#f5f5f5">G667NO</text>
<polyline fill="none" stroke="transparent" points="589.5,-0.5 589.5,-36.5 "/>
<text text-anchor="middle" x="600" y="-14.8" font-family="Times,serif" font-size="14.00" fill="#f5f5f5"> </text>
<polyline fill="none" stroke="transparent" points="610.5,-0.5 610.5,-36.5 "/>
<text text-anchor="middle" x="649" y="-14.8" font-family="Times,serif" font-size="14.00" fill="#f5f5f5">H778PQ</text>
<polyline fill="none" stroke="transparent" points="687.5,-0.5 687.5,-36.5 "/>
<text text-anchor="middle" x="698" y="-14.8" font-family="Times,serif" font-size="14.00" fill="#f5f5f5"> </text>
</g>
<!-- n1&#45;&gt;n4 -->
<g id="edge4" class="edge">
<title>n1:f2&#45;&gt;n4</title>
<path fill="none" stroke="#ff5722" d="M524.5,-73C524.5,-73 546.85,-57.06 567.15,-42.58"/>
<polygon fill="#ff5722" stroke="#ff5722" points="569.25,-45.38 575.36,-36.72 565.18,-39.68 569.25,-45.38"/>
</g>
<!-- n6 -->
<g id="node7" class="node">
<title>n6</title>
<polygon fill="#004488" stroke="transparent" points="745,-0.5 745,-36.5 956,-36.5 956,-0.5 745,-0.5"/>
<text text-anchor="middle" x="755.5" y="-14.8" font-family="Times,serif" font-size="14.00" fill="#f5f5f5"> </text>
<polyline fill="none" stroke="transparent" points="766,-0.5 766,-36.5 "/>
<text text-anchor="middle" x="801" y="-14.8" font-family="Times,serif" font-size="14.00" fill="#f5f5f5">J990TU</text>
<polyline fill="none" stroke="transparent" points="836,-0.5 836,-36.5 "/>
<text text-anchor="middle" x="846.5" y="-14.8" font-family="Times,serif" font-size="14.00" fill="#f5f5f5"> </text>
<polyline fill="none" stroke="transparent" points="857,-0.5 857,-36.5 "/>
<text text-anchor="middle" x="896" y="-14.8" font-family="Times,serif" font-size="14.00" fill="#f5f5f5">K111VW</text>
<polyline fill="none" stroke="transparent" points="935,-0.5 935,-36.5 "/>
<text text-anchor="middle" x="945.5" y="-14.8" font-family="Times,serif" font-size="14.00" fill="#f5f5f5"> </text>
</g>
<!-- n5&#45;&gt;n6 -->
<g id="edge6" class="edge">
<title>n5:f0&#45;&gt;n6</title>
<path fill="none" stroke="#ff5722" d="M997.5,-91.5C997.5,-91.5 937.88,-62.3 894.58,-41.09"/>
<polygon fill="#ff5722" stroke="#ff5722" points="895.86,-37.82 885.34,-36.56 892.78,-44.1 895.86,-37.82"/>
</g>
<!-- n7 -->
<g id="node8" class="node">
<title>n7</title>
<polygon fill="#004488" stroke="transparent" points="992.5,-0.5 992.5,-36.5 1208.5,-36.5 1208.5,-0.5 992.5,-0.5"/>
<text text-anchor="middle" x="1003" y="-14.8" font-family="Times,serif" font-size="14.00" fill="#f5f5f5"> </text>
<polyline fill="none" stroke="transparent" points="1013.5,-0.5 1013.5,-36.5 "/>
<text text-anchor="middle" x="1052" y="-14.8" font-family="Times,serif" font-size="14.00" fill="#f5f5f5">M333YZ</text>
<polyline fill="none" stroke="transparent" points="1090.5,-0.5 1090.5,-36.5 "/>
<text text-anchor="middle" x="1101" y="-14.8" font-family="Times,serif" font-size="14.00" fill="#f5f5f5"> </text>
<polyline fill="none" stroke="transparent" points="1111.5,-0.5 1111.5,-36.5 "/>
<text text-anchor="middle" x="1149.5" y="-14.8" font-family="Times,serif" font-size="14.00" fill="#f5f5f5">N444AB</text>
<polyline fill="none" stroke="transparent" points="1187.5,-0.5 1187.5,-36.5 "/>
<text text-anchor="middle" x="1198" y="-14.8" font-family="Times,serif" font-size="14.00" fill="#f5f5f5"> </text>
</g>
<!-- n5&#45;&gt;n7 -->
<g id="edge7" class="edge">
<title>n5:f1&#45;&gt;n7</title>
<path fill="none" stroke="#ff5722" d="M1100.5,-73C1100.5,-73 1100.5,-60.15 1100.5,-47.05"/>
<polygon fill="#ff5722" stroke="#ff5722" points="1104,-46.72 1100.5,-36.72 1097,-46.72 1104,-46.72"/>
</g>
<!-- n8 -->
<g id="node9" class="node">
<title>n8</title>
<polygon fill="#004488" stroke="transparent" points="1244.5,-0.5 1244.5,-36.5 1456.5,-36.5 1456.5,-0.5 1244.5,-0.5"/>
<text text-anchor="middle" x="1255" y="-14.8" font-family="Times,serif" font-size="14.00" fill="#f5f5f5"> </text>
<polyline fill="none" stroke="transparent" points="1265.5,-0.5 1265.5,-36.5 "/>
<text text-anchor="middle" x="1300" y="-14.8" font-family="Times,serif" font-size="14.00" fill="#f5f5f5">P101JK</text>
<polyline fill="none" stroke="transparent" points="1334.5,-0.5 1334.5,-36.5 "/>
<text text-anchor="middle" x="1345" y="-14.8" font-family="Times,serif" font-size="14.00" fill="#f5f5f5"> </text>
<polyline fill="none" stroke="transparent" points="1355.5,-0.5 1355.5,-36.5 "/>
<text text-anchor="middle" x="1395.5" y="-14.8" font-family="Times,serif" font-size="14.00" fill="#f5f5f5">P112MN</text>
<polyline fill="none" stroke="transparent" points="1435.5,-0.5 1435.5,-36.5 "/>
<text text-anchor="middle" x="1446" y="-14.8" font-family="Times,serif" font-size="14.00" fill="#f5f5f5"> </text>
</g>
<!-- n5&#45;&gt;n8 -->
<g id="edge8" class="edge">
<title>n5:f2&#45;&gt;n8</title>
<path fill="none" stroke="#ff5722" d="M1199.5,-73C1199.5,-73 1250.16,-55.05 1292.8,-39.94"/>
<polygon fill="#ff5722" stroke="#ff5722" points="1294.05,-43.21 1302.31,-36.57 1291.71,-36.62 1294.05,-43.21"/>
</g>
<!-- n9 -->
<g id="node10" class="node">
<title>n9</title>
<polygon fill="#004488" stroke="transparent" points="1493,-0.5 1493,-36.5 1708,-36.5 1708,-0.5 1493,-0.5"/>
<text text-anchor="middle" x="1503.5" y="-14.8" font-family="Times,serif" font-size="14.00" fill="#f5f5f5"> </text>
<polyline fill="none" stroke="transparent" points="1514,-0.5 1514,-36.5 "/>
<text text-anchor="middle" x="1551.5" y="-14.8" font-family="Times,serif" font-size="14.00" fill="#f5f5f5">P456DE</text>
<polyline fill="none" stroke="transparent" points="1589,-0.5 1589,-36.5 "/>
<text text-anchor="middle" x="1599.5" y="-14.8" font-family="Times,serif" font-size="14.00" fill="#f5f5f5"> </text>
<polyline fill="none" stroke="transparent" points="1610,-0.5 1610,-36.5 "/>
<text text-anchor="middle" x="1648.5" y="-14.8" font-family="Times,serif" font-size="14.00" fill="#f5f5f5">P789GH</text>
<polyline fill="none" stroke="transparent" points="1687,-0.5 1687,-36.5 "/>
<text text-anchor="middle" x="1697.5" y="-14.8" font-family="Times,serif" font-size="14.00" fill="#f5f5f5"> </text>
</g>
<!-- n5&#45;&gt;n9 -->
<g id="edge9" class="edge">
<title>n5:f3&#45;&gt;n9</title>
<path fill="none" stroke="#ff5722" d="M1305.5,-91.5C1305.5,-91.5 1433.31,-60.31 1520.68,-38.98"/>
<polygon fill="#ff5722" stroke="#ff5722" points="1521.7,-42.33 1530.59,-36.56 1520.04,-35.53 1521.7,-42.33"/>
</g>
</g>
</svg>
