<?xml version="1.0" encoding="UTF-8" standalone="no"?>
<!DOCTYPE svg PUBLIC "-//W3C//DTD SVG 1.1//EN"
 "http://www.w3.org/Graphics/SVG/1.1/DTD/svg11.dtd">
<!-- Generated by graphviz version 2.43.0 (0)
 -->
<!-- Title: G Pages: 1 -->
<svg width="410pt" height="67pt"
 viewBox="0.00 0.00 410.00 67.00" xmlns="http://www.w3.org/2000/svg" xmlns:xlink="http://www.w3.org/1999/xlink">
<g id="graph0" class="graph" transform="scale(1 1) rotate(0) translate(4 63)">
<title>G</title>
<polygon fill="#f5f5f5" stroke="transparent" points="-4,4 -4,-63 406,-63 406,4 -4,4"/>
<text text-anchor="middle" x="201" y="-43.8" font-family="Times,serif" font-size="14.00">Clientes</text>
<!-- n1 -->
<g id="node1" class="node">
<title>n1</title>
<polygon fill="#004488" stroke="transparent" points="115,-36 0,-36 0,0 115,0 115,-36"/>
<text text-anchor="middle" x="57.5" y="-26.9" font-family="Times,serif" font-size="4.50" fill="#f5f5f5">Id: 1</text>
<text text-anchor="middle" x="57.5" y="-21.9" font-family="Times,serif" font-size="4.50" fill="#f5f5f5">Cliente: Carlos Eduardo Morales Castillo</text>
<text text-anchor="middle" x="57.5" y="-16.9" font-family="Times,serif" font-size="4.50" fill="#f5f5f5">Vehiculo: Hyundai Elantra</text>
<text text-anchor="middle" x="57.5" y="-11.9" font-family="Times,serif" font-size="4.50" fill="#f5f5f5">Fecha: 26/12/2024</text>
<text text-anchor="middle" x="57.5" y="-6.9" font-family="Times,serif" font-size="4.50" fill="#f5f5f5">Hora: 21:29</text>
</g>
<!-- n2 -->
<g id="node2" class="node">
<title>n2</title>
<polygon fill="#004488" stroke="transparent" points="246,-36 151,-36 151,0 246,0 246,-36"/>
<text text-anchor="middle" x="198.5" y="-26.9" font-family="Times,serif" font-size="4.50" fill="#f5f5f5">Id: 2</text>
<text text-anchor="middle" x="198.5" y="-21.9" font-family="Times,serif" font-size="4.50" fill="#f5f5f5">Cliente: Juan Carlos Pérez López</text>
<text text-anchor="middle" x="198.5" y="-16.9" font-family="Times,serif" font-size="4.50" fill="#f5f5f5">Vehiculo: Nissan Altima</text>
<text text-anchor="middle" x="198.5" y="-11.9" font-family="Times,serif" font-size="4.50" fill="#f5f5f5">Fecha: 26/12/2024</text>
<text text-anchor="middle" x="198.5" y="-6.9" font-family="Times,serif" font-size="4.50" fill="#f5f5f5">Hora: 21:29</text>
</g>
<!-- n1&#45;&gt;n2 -->
<g id="edge1" class="edge">
<title>n1&#45;&gt;n2</title>
<path fill="none" stroke="#ff5722" d="M115.04,-18C123.48,-18 132.19,-18 140.64,-18"/>
<polygon fill="#ff5722" stroke="#ff5722" points="140.78,-21.5 150.78,-18 140.78,-14.5 140.78,-21.5"/>
</g>
<!-- n3 -->
<g id="node3" class="node">
<title>n3</title>
<polygon fill="#004488" stroke="transparent" points="402,-36 282,-36 282,0 402,0 402,-36"/>
<text text-anchor="middle" x="342" y="-26.9" font-family="Times,serif" font-size="4.50" fill="#f5f5f5">Id: 3</text>
<text text-anchor="middle" x="342" y="-21.9" font-family="Times,serif" font-size="4.50" fill="#f5f5f5">Cliente: María Fernanda Rodríguez Gómez</text>
<text text-anchor="middle" x="342" y="-16.9" font-family="Times,serif" font-size="4.50" fill="#f5f5f5">Vehiculo: Mazda CX&#45;5</text>
<text text-anchor="middle" x="342" y="-11.9" font-family="Times,serif" font-size="4.50" fill="#f5f5f5">Fecha: 26/12/2024</text>
<text text-anchor="middle" x="342" y="-6.9" font-family="Times,serif" font-size="4.50" fill="#f5f5f5">Hora: 21:30</text>
</g>
<!-- n2&#45;&gt;n3 -->
<g id="edge2" class="edge">
<title>n2&#45;&gt;n3</title>
<path fill="none" stroke="#ff5722" d="M246.22,-18C254.44,-18 263.15,-18 271.82,-18"/>
<polygon fill="#ff5722" stroke="#ff5722" points="271.96,-21.5 281.96,-18 271.96,-14.5 271.96,-21.5"/>
</g>
</g>
</svg>
