<?xml version="1.0" encoding="UTF-8" standalone="no"?>
<!DOCTYPE svg PUBLIC "-//W3C//DTD SVG 1.1//EN"
 "http://www.w3.org/Graphics/SVG/1.1/DTD/svg11.dtd">
<!-- Generated by graphviz version 2.43.0 (0)
 -->
<!-- Title: G Pages: 1 -->
<svg width="206pt" height="67pt"
 viewBox="0.00 0.00 206.00 67.00" xmlns="http://www.w3.org/2000/svg" xmlns:xlink="http://www.w3.org/1999/xlink">
<g id="graph0" class="graph" transform="scale(1 1) rotate(0) translate(4 63)">
<title>G</title>
<polygon fill="#f5f5f5" stroke="transparent" points="-4,4 -4,-63 202,-63 202,4 -4,4"/>
<text text-anchor="middle" x="99" y="-43.8" font-family="Times,serif" font-size="14.00">Viajes</text>
<!-- n1 -->
<g id="node1" class="node">
<title>n1</title>
<polygon fill="#004488" stroke="transparent" points="79,-36 0,-36 0,0 79,0 79,-36"/>
<text text-anchor="middle" x="39.5" y="-26.9" font-family="Times,serif" font-size="4.50" fill="#f5f5f5">ID: 1</text>
<text text-anchor="middle" x="39.5" y="-21.9" font-family="Times,serif" font-size="4.50" fill="#f5f5f5">Cliente: Abigail Solares</text>
<text text-anchor="middle" x="39.5" y="-16.9" font-family="Times,serif" font-size="4.50" fill="#f5f5f5">Vehiculo: BMW MOD 2008</text>
<text text-anchor="middle" x="39.5" y="-11.9" font-family="Times,serif" font-size="4.50" fill="#f5f5f5">Fecha: 28/12/2024</text>
<text text-anchor="middle" x="39.5" y="-6.9" font-family="Times,serif" font-size="4.50" fill="#f5f5f5">Hora: 15:48</text>
</g>
<!-- n2 -->
<g id="node2" class="node">
<title>n2</title>
<polygon fill="#004488" stroke="transparent" points="198,-36 115,-36 115,0 198,0 198,-36"/>
<text text-anchor="middle" x="156.5" y="-26.9" font-family="Times,serif" font-size="4.50" fill="#f5f5f5">ID: 2</text>
<text text-anchor="middle" x="156.5" y="-21.9" font-family="Times,serif" font-size="4.50" fill="#f5f5f5">Cliente: Abigail Solares</text>
<text text-anchor="middle" x="156.5" y="-16.9" font-family="Times,serif" font-size="4.50" fill="#f5f5f5">Vehiculo: Mazda MOD 2004</text>
<text text-anchor="middle" x="156.5" y="-11.9" font-family="Times,serif" font-size="4.50" fill="#f5f5f5">Fecha: 28/12/2024</text>
<text text-anchor="middle" x="156.5" y="-6.9" font-family="Times,serif" font-size="4.50" fill="#f5f5f5">Hora: 15:53</text>
</g>
<!-- n1&#45;&gt;n2 -->
<g id="edge1" class="edge">
<title>n1&#45;&gt;n2</title>
<path fill="none" stroke="#ff5722" d="M79.11,-18C87.28,-18 96.01,-18 104.55,-18"/>
<polygon fill="#ff5722" stroke="#ff5722" points="104.82,-21.5 114.82,-18 104.82,-14.5 104.82,-21.5"/>
</g>
</g>
</svg>
